<svg id="Layer_1" data-name="Layer 1" xmlns="http://www.w3.org/2000/svg" viewBox="0 0 544.9 538.38"><defs><style>.cls-1{fill:#febc1f;}.cls-2{fill:#fe0000;}.cls-3{fill:#feb60a;}.cls-4{fill:#feb810;}.cls-5{fill:#fec949;}.cls-6{fill:#feba16;}.cls-7{fill:#feb914;}.cls-8{fill:#febc1c;}.cls-9{fill:#febb19;}.cls-10{fill:#fecb52;}.cls-11{fill:#fec232;}.cls-12{fill:#febf26;}.cls-13{fill:#feb505;}.cls-14{fill:#fec63f;}.cls-15{fill:#fed269;}.cls-16{fill:#fefdfc;}</style></defs><path class="cls-1" d="M555,404.33c-1-.68-1.2.39-1.73.77a4.65,4.65,0,0,1-5.18.2c-1.66-.85-1.55-2.1-1-3.51s-.32-2.14-1-3c-4.91-6.27-9.87-12.51-14.78-18.78a2.45,2.45,0,0,0-1.57-1c-.71.54-.37,1.33-.37,2,0,6.93.18,13.86-.11,20.78A11.35,11.35,0,0,0,532,410c3.08,3.69,6,7.47,9.13,11.14a4,4,0,0,1,.92,2.79q0,3.45,0,6.92c0,.83-.18,1.8.7,2.24a1.89,1.89,0,0,1,1.22,2.44,3,3,0,0,1-2.58,1.79,3.2,3.2,0,0,1-3.6-1.4c-.71-1.29-.12-2.3,1-3,.94-.56.59-1.42.77-2.19,1.63-7.05-2.8-11.57-6.76-16.3-1.8-2.15-3.56-4.34-5.25-6.58-.94-1.25-.78-2.8-.78-4.28,0-17.73-.09-35.46.1-53.19,0-3-1.2-5-2.82-7.08-5.23-6.59-10.54-13.11-15.8-19.68a4.84,4.84,0,0,1-.79-3.16c0-6,0-12,0-18a3.77,3.77,0,0,1,1.92-3.61c3.51-2.29,6.86-4.85,10.19-7.41,1.15-.89,2.62-1.52,2.71-3.47.08-1.62,1.61-1.79,2.95-1.86a3.37,3.37,0,0,1,3.37,1.94c.7,1.52-1,2.42-1.87,2.52-5.21.64-8.13,5-12.36,7.16-4.08,2.06-4.94,5.27-4.47,9.43a25.89,25.89,0,0,1,0,7.46c-1.1,5.89,1.85,10.08,5.25,14.22,4.53,5.53,9,11.1,13.5,16.66a4.71,4.71,0,0,1,.66,3.18c0,7.2.19,14.42-.1,21.61a11.87,11.87,0,0,0,2.86,8.49c5.44,6.66,10.85,13.33,16.16,20.09.84,1.07,1.65,1.78,2.93,1.56,1.69-.3,2.07,2.13,3.77,1.66Z" transform="translate(-10.05 -14.53)"/><path class="cls-2" d="M57.27,266.22a3.33,3.33,0,0,1-1.71,3.13c-3.7,2.5-7.28,5.18-10.83,7.89-1,.77-2.29,1.37-2.23,3.14,0,1.27-1.21,1.76-2.38,1.88-1.42.15-2.93.05-3.7-1.26-.88-1.49-.28-3,1.42-3.1,4.57-.19,7-3.94,10.58-5.79,5.4-2.81,7.68-7.05,6.56-13.15a16.38,16.38,0,0,1,0-5.8c.9-5-1.46-8.77-4.55-12.27-4.85-5.51-8.79-11.74-13.8-17.13-1.05-1.14-1.14-2.65-1.13-4.18,0-7.48-.15-15,.09-22.45a9.07,9.07,0,0,0-2.87-7,4.8,4.8,0,0,1-1.16-1.83c-3.24-3.06-5.51-6.91-8.38-10.27-2.1-2.47-4-5.1-6-7.65-1.42-3-5-2.16-7.14-3.9v-2.22c3.42-2.47,5.9-2.42,7.55.16.19.29.53.82.47.87-2.42,2.19.41,3.42.9,5.06,2.5,1.59,3.69,4.32,5.55,6.47,3.11,3.61,5.86,7.52,8.77,11.3.58.52.71,1.82,1.74,1.48s.45-1.46.45-2.19c.05-6.29-.38-12.61.16-18.84.45-5.13-1.78-8.69-4.76-12.24Q27,151.76,23.39,147c-.9-1.16-.44-2.68-.64-4-.42-2.91,1.34-6.21-1.77-8.67-.78-.62-.34-1.93.72-2.56a4,4,0,0,1,4.89.26,1.76,1.76,0,0,1,0,2.9c-1.77,1-1.19,2.42-1.48,3.79-1.23,5.85,2.14,9.81,5.47,13.84,2.37,2.86,4.66,5.78,6.93,8.72.66.85.36,2,.36,3,0,17.55.06,35.11,0,52.66,0,3,.43,5.44,2.49,7.78,5.63,6.38,10.24,13.6,16,19.88a4.23,4.23,0,0,1,1,3.08C57.25,253.84,57.24,260,57.27,266.22Z" transform="translate(-10.05 -14.53)"/><path class="cls-3" d="M421.22,552.91c-.46-4,1-5.42,5.07-4.36a9.28,9.28,0,0,0,3.17-.14l.73.77c-1.82.59-1.95,2.23-2.31,3.73Z" transform="translate(-10.05 -14.53)"/><path class="cls-4" d="M137.12,552.91c-.69-1-.32-2.6-1.68-3.29v-1.14a7.49,7.49,0,0,0,3.7-.16c3.47-.8,5.18,1.19,4.07,4.59Z" transform="translate(-10.05 -14.53)"/><path class="cls-2" d="M534.22,70.9c-2.59,1.15-2.06,3.52-1.77,5.33a40.49,40.49,0,0,1,.36,6.3c0,19.22-.12,38.43.12,57.64.05,4.53-1.68,7.91-4.33,11.16L523,158.25c-1,1.17-.94,2.54-.94,3.95,0,15.33,0,30.66.07,46a9.62,9.62,0,0,1-2.54,6.37q-7,8.84-14,17.66c-3.1,3.9-6.13,7.86-9.35,11.67a5.42,5.42,0,0,0-1.5,3.68v73.16a5.45,5.45,0,0,0,1.48,3.68c4.83,6,9.48,12.14,14.23,18.2,3.51,4.49,7,9,10.66,13.37a5,5,0,0,1,1,3.53c0,14.69.17,29.38-.12,44.06a14.33,14.33,0,0,0,4.18,10.53c1.86,2.07,3.41,4.43,5.1,6.65a1.27,1.27,0,0,1-1.24.76l-7.47-9.3c-.75.73-.43,1.49-.44,2.16,0,10.62,0,21.24,0,31.86a3.44,3.44,0,0,0,1.9,3.55c3.29,1.86,3.23,5.66.12,7.71a8.92,8.92,0,0,1-10.33-.4c-2.59-1.94-2.7-5.38.15-7,2.54-1.42,2.83-3.28,2.8-5.83-.13-10.34,0-20.68-.08-31,0-.71.55-1.79-.51-2.14s-1.24.8-1.72,1.42c-2.56,3.29-5.08,6.62-7.76,9.81-.78.94-1.14,1.78-.38,2.66,1.65,1.88-.33,2.39-1.2,3-1.38.92-4.42,0-4.9-1.3-.62-1.69.6-2.54,1.85-2.78,3-.56,3.81-3.27,5.43-5.1,3-3.4,5.64-7.09,8.47-10.62a4.25,4.25,0,0,0,.75-2.87c0-15.23-.08-30.47.07-45.71,0-2.54-1.65-3.85-2.85-5.39-7.45-9.58-15.12-19-22.63-28.52a9.36,9.36,0,0,1-2.07-6.09c.1-22.62.22-45.25-.07-67.87a17.81,17.81,0,0,1,4.5-12.17c5.66-6.95,11.17-14,16.74-21,1.52-1.92,2.8-4.09,4.59-5.7s1.72-3.3,1.72-5.23q0-19,0-38c0-4.24.79-8.66-2.65-12.15l1-.41c.94.48,1.72.81,1.71-.84q0-17.44,0-34.9a1.94,1.94,0,0,0-1.41-2c-2.16-.92-3.67-2.43-3.31-5.09s2.38-3.7,4.69-4.36a9.13,9.13,0,0,1,6.7.69,5.11,5.11,0,0,1,3.21,4.12,4.51,4.51,0,0,1-2.73,4.09,3,3,0,0,0-1.75,3.07c0,11.08,0,22.17,0,33.25,0,.33.09.67.19,1.43,3-3.69,5.81-7.08,8.56-10.5.63-.78.29-1.79.29-2.68q0-35.61,0-71.2c-.1-.94-.78-1-1.51-1a1.81,1.81,0,0,1-.46-2.78c1-1.4,2.4-1.21,3.76-1a3.16,3.16,0,0,1,2.35,2.09C535.55,70.16,534.64,70.71,534.22,70.9Z" transform="translate(-10.05 -14.53)"/><path class="cls-2" d="M75.1,321.53c0,2.15-1.21,3.35-2.3,4.74q-9.1,11.67-18.28,23.29c-1.74,2.21-3.54,4.37-5.3,6.56a5.47,5.47,0,0,0-1,3.65c0,15.14.07,30.28,0,45.42,0,3.31,2.55,4.89,4.05,7.2A4.89,4.89,0,0,1,53,413.5a1.35,1.35,0,0,1-1.3.82l-3-3.63c-.71.65-.41,1.42-.41,2.07,0,11.09,0,22.17,0,33.26,0,1.55.11,2.7,1.89,3.49A4.3,4.3,0,0,1,53,453.79c-.2,2.13-1.63,3.37-3.45,4.2-3.49,1.61-7.67,1-9.71-1.34-2.38-2.75-2-5.23,1.35-7.15,1-.56,1.64-1,1.64-2.24,0-11.61,0-23.23,0-35.63-3.17,3.86-5.91,7.16-8.59,10.49a3.56,3.56,0,0,0-.38,2.41v69.83c0,1.08-.08,2,1.13,2.85,1.79,1.21,1.43,2.8-.56,3.69a3.47,3.47,0,0,1-4.48-.91c-1.07-1.42-.11-2.46,1.32-3.25,1.05-.58.66-1.82.66-2.81,0-22.44.08-44.89-.09-67.33a11.33,11.33,0,0,1,2.74-7.69c2.41-2.94,4.86-5.84,7.3-8.75,1-1.16,1-2.53,1-3.93,0-14.41.29-28.83-.17-43.23-.16-5.15,2-8.61,4.91-12.17q7.06-8.76,14.06-17.57c2.54-3.21,4.86-6.58,7.47-9.71a4.18,4.18,0,0,0,1.09-2.93c0-24.3,0-48.59.06-72.88,0-2.3-1.52-3.51-2.6-4.92q-11.68-15.18-23.72-30.09a5.35,5.35,0,0,1-1.1-3.78c0-15.33,0-30.66,0-46a9.87,9.87,0,0,0-1.17-5.29c.05-.51.15-1,.69-1.22.8-.65.43-1.54.43-2.32,0-10.6,0-21.19,0-31.79a3.59,3.59,0,0,0-2-3.67c-3.69-2.18-3.2-6.17.72-8.1a8.52,8.52,0,0,1,7.46-.42c2,.89,4.14,2,4,4.67s-1.8,4-4.26,4.67a4.7,4.7,0,0,0-.43,2.69v33.45a4.24,4.24,0,0,0,.42,2.41A4,4,0,0,1,50.58,156c1.86-3.89,5.23-6.65,7.63-10.14.54-.77,1.12-1.39.41-2.07-2.17-2.08.1-2.77,1.2-3.34,1.54-.8,3.4-.64,4.29,1.12s-.1,2.8-1.85,3.2c-2.54.59-3.2,3.09-4.71,4.69-2.29,2.42-4.31,5.09-6.44,7.66-.2.36-.41.72-.61,1.09a1.52,1.52,0,0,0-1.59,1.19,22.52,22.52,0,0,0-.69,6.79q0,21.06,0,42.1a7.63,7.63,0,0,0,2,5.19c5.46,6.64,10.68,13.48,16,20.24,2.57,3.27,5.12,6.56,7.78,9.76a4.79,4.79,0,0,1,1,3.31C75,271.68,75,296.6,75.1,321.53Z" transform="translate(-10.05 -14.53)"/><path class="cls-1" d="M492.78,345l0,0s0,0,0,0Z" transform="translate(-10.05 -14.53)"/><path class="cls-1" d="M493.39,223.07l0,0,0,0S493.39,223.05,493.39,223.07Z" transform="translate(-10.05 -14.53)"/><path class="cls-4" d="M414.68,42.88c-.66-1.22-1.82-.64-2.73-.65-15.43,0-30.87,0-46.31,0-1.77,0-3.19.12-4.59,1.76-2.44,2.88-9.38,2.28-11.82-.66-1.86-2.26-.51-6.14,2.69-7.36,3.52-1.33,6.9-1.17,9.71,1.66a3.85,3.85,0,0,0,3.05.94q23,0,46,0c.49,0,1.31.45,1.35-.56,0-.2-.55-.41-.85-.62l0-1.16c5.83,3.12,12.16,2.35,18.39,2.36,16.46,0,32.92.21,49.38-.1a39.51,39.51,0,0,1,17.85,3.74c6.74,3.13,13.63,5.92,20.47,8.83a4.88,4.88,0,0,0,4.2.21,7.92,7.92,0,0,1,7,.32c1.6.85,3.07,1.91,3.21,4.11.16,2.35-1.2,3.69-2.9,4.59-4.15,2.21-11,.85-11.81-4.37-.19-1.15-1.12-1.29-2-1.65q-13.59-5.74-27.14-11.55a8.82,8.82,0,0,0-3.53-.46c-20.9,0-41.8,0-62.7,0-2.13,0-3.89.95-5.86,1.33Z" transform="translate(-10.05 -14.53)"/><path class="cls-4" d="M152.17,38c.61,1.11,1.65.58,2.48.58,14.69,0,29.38,0,44.07,0a7.58,7.58,0,0,0,5-1.57c3.09-2.4,6.48-2.36,9.84-.59,3.67,1.94,3.75,5.86.22,8.06a9.2,9.2,0,0,1-11.18-1.25,3.08,3.08,0,0,0-2.37-1q-25.08.07-50.16.11c-.32.4-.63.81-.94,1.21-4.32-1.79-8.86-1.3-13.34-1.31-17.57,0-35.13.08-52.69-.07A24.64,24.64,0,0,0,73,44.24c-7.77,3.32-15.57,6.56-23.34,9.85-1.33.56-2.36,1.1-2.64,3-.5,3.37-5.7,5.11-10,3.78-2.48-.78-4.18-2.68-4.25-4.86s1.81-4.1,4.2-4.82a8.37,8.37,0,0,1,5.71-.09A6.18,6.18,0,0,0,48,50.74c8.41-3.67,16.86-7.23,25.31-10.82A16.58,16.58,0,0,1,80,38.52c20.53.06,41.05,0,61.57.06,3.63,0,7.18-.08,10.47-1.81Z" transform="translate(-10.05 -14.53)"/><path class="cls-2" d="M528.62,516.82a8.09,8.09,0,0,1-6.71.48,6,6,0,0,0-5,.27c-8.77,3.76-17.57,7.47-26.35,11.21a12.08,12.08,0,0,1-4.82,1c-20.9,0-41.79.08-62.69,0-3.75,0-7.34.29-10.69,2.06,0-.38,0-.77,0-1.15.1-1.23-.79-1-1.49-1l-46.25,0a4.21,4.21,0,0,0-3.38,1.41c-2.75,2.92-9.59,2.48-12-.6-1.58-2-.75-5.36,1.85-6.8,2.83-1.59,7.61-2.07,10.6,1.33a3.58,3.58,0,0,0,3,1.12H411.7c.72,0,1.82.42,1.73-1-5.38-2.43-11.07-4.17-16.22-7.13a5.62,5.62,0,0,0-2.09.5c-1.64.57-3.36.66-4.29-1.14a2,2,0,0,1,1.07-3c1.6-.51,3.47-1,4.33,1.32a3.71,3.71,0,0,1,1.75,1.57h0a154.84,154.84,0,0,1,17.17,7.25c3.57,2,7.48,1.64,11.34,1.64,17.11,0,34.21-.16,51.31.08A37.36,37.36,0,0,0,494.63,523c6.73-3.14,13.64-5.92,20.5-8.79,1-.42,1.75-.74,2-2,.7-3.42,3.36-4.57,6.39-5a7.7,7.7,0,0,1,7.56,3C532.64,512.27,531.34,515.54,528.62,516.82Z" transform="translate(-10.05 -14.53)"/><path class="cls-2" d="M273.41,538.59a3.17,3.17,0,0,1-4.68.35,5.19,5.19,0,0,0-3.81-1.07q-47.71,0-95.43,0a17.56,17.56,0,0,1-9.07-2.75,19.07,19.07,0,0,1-6.27-2.64c-6-3.5-12.65-2.74-19.16-2.74-18.58,0-37.16,0-55.74.08-3,0-5.56-1.23-8.16-2.31-8.22-3.42-16.39-7-24.56-10.49a3.75,3.75,0,0,0-2.92.06,9.58,9.58,0,0,1-8.48-.85c-3-1.81-2.24-6.31-.12-7.62a9.3,9.3,0,0,1,10.38.2A3,3,0,0,1,46.94,511c.07,2.31,1.61,2.87,3.37,3.6,8.82,3.63,17.6,7.36,26.37,11.11a8.53,8.53,0,0,0,3.51.55c21,0,42,0,62.95,0,2.45,0,4.37-1.34,6.62-1.76a1.28,1.28,0,0,1,.67,1.18c.56,1,1.49.5,2.24.5q23.42,0,46.83,0a4.34,4.34,0,0,0,3.38-1.27c3.45-3.28,9.72-3.06,12.14.14,2.09,2.77,1.68,5-1.34,6.75-3.44,2-6.9,1.91-10-.55a7.5,7.5,0,0,0-5-1.56c-15,0-30.1,0-45.15,0a5.17,5.17,0,0,0-1.11.37l2.56,1.65a17.33,17.33,0,0,1,5.7,2.29c4.29,2.2,8.85,2.62,13.64,2.6,30.15-.11,60.29-.05,90.44-.05,1.47,0,3,.18,4.08-1.17a.57.57,0,0,1,.23-.15c1.87-.65,3.45-.66,5,1.08C275.07,537.7,273.83,538.09,273.41,538.59Z" transform="translate(-10.05 -14.53)"/><path class="cls-2" d="M555,164.27v2.22c-3.43,1.08-7,2-8.82,5.57q-6.48,8.35-13,16.7c-.2.25-.63.33-.95.49,0-.48-.09-.95-.63-1.17,1.24-2.77,3.37-5,5.29-7.19,2.75-3.13,4.94-6.7,7.92-9.62,1.52-1.81,3.08-3.51,2-6.27-.42-1.07.84-1.71,1.79-2.09a4.44,4.44,0,0,1,4.67.47C553.76,163.78,553.94,164.81,555,164.27Z" transform="translate(-10.05 -14.53)"/><path class="cls-2" d="M531.25,188.75l.76.78c-3.49,3.15-2.66,7.34-2.68,11.3,0,5.63-.26,11.28.08,16.89a11,11,0,0,1-2.86,7.95q-7.92,9.83-15.88,19.63a3.85,3.85,0,0,0-.68,2.61c0,5.91,0,11.82,0,17.73a3,3,0,0,0,1.57,2.89c3.57,2.38,7,4.92,10.41,7.55a5.83,5.83,0,0,0,3.7,1.45c1.43,0,2.9.8,3.05,2.25.17,1.62-1.37,2.27-2.75,2.47s-3.41.14-3.55-1.71c-.16-2.06-1.61-2.75-2.82-3.67-3.41-2.58-6.88-5.1-10.44-7.47a3.17,3.17,0,0,1-1.62-2.93c0-6.28.09-12.56,0-18.83-.07-2.79,2-4.31,3.36-6.08,5-6.56,10.29-12.86,15.48-19.25.78-1,.49-2.12.49-3.19,0-17.54.14-35.09-.09-52.63a13.59,13.59,0,0,1,3.51-9.43c3-3.54,5.87-7.13,8.83-10.66a2.92,2.92,0,0,0,.53-2.07c0-2.21,0-4.43,0-6.65a2.44,2.44,0,0,0-1.12-2.54c-1.26-.79-1.31-2.12-.19-3.23s4.33-1.09,5.33.24c.81,1.08.85,2.28-.57,3a2,2,0,0,0-.94,2.37c.87,6-.92,10.88-5.41,15.19-2.49,2.39-4.34,5.55-6.62,8.27a3.8,3.8,0,0,0-.76,2.59c0,8.13,0,16.25,0,24.38C529.29,190.2,530.11,189.71,531.25,188.75Z" transform="translate(-10.05 -14.53)"/><path class="cls-5" d="M462.41,409.9c-.05-2.3,0-4.61-.15-6.91s1.73-3.62,2.88-5.13c5.64-7.43,11.48-14.73,17.35-22a3.52,3.52,0,0,0,.81-2.47c0-5.08,0-10.16,0-15.24,0-3.24-2.93-4.65-4.38-7-2-3.13-4.56-5.86-6.87-8.78-.57-.72-.36-1.59-.36-2.41q0-55.69-.07-111.38c0-2.24,1.26-3.6,2.32-5.06,2.66-3.66,5.55-7.17,8.48-10.63a3.38,3.38,0,0,0,.88-2.44c0-5.18,0-10.35,0-15.52,0-3.07-2.77-4.58-4.3-6.72-3.85-5.37-8.12-10.44-12.22-15.63a23,23,0,0,0-2.07-2.53c-3.7-3.42-2.13-7.85-2.39-11.94l1.67,0c-1.38,6.93,2,11.92,6.3,16.86,4.64,5.33,8.6,11.23,13.25,16.57a4.88,4.88,0,0,1,.83,3.43c0,4.53-.17,9.06.05,13.58a10.05,10.05,0,0,1-2.81,7.7c-2.67,3-5.09,6.14-7.62,9.22a3.83,3.83,0,0,0-.63,2.63q0,56-.05,112c0,1.94,1.07,3,2.09,4.24,2.45,3.05,4.79,6.19,7.33,9.16a5.83,5.83,0,0,1,1.63,3.95q0,8.17,0,16.35a5.77,5.77,0,0,1-1.64,3.88C478,383.4,473.54,389.26,469,395c-1.18,1.5-2.42,2.94-3.6,4.43a5.76,5.76,0,0,0-1.44,3.79c.05,2.21,0,4.43-.08,6.64Z" transform="translate(-10.05 -14.53)"/><path class="cls-6" d="M66.35,515.7a3,3,0,0,1-3.65-2.42c-.07-1.47,1.59-2.57,3.54-2.73,1.72-.15,3.06-.21,3.56,1.8s2.47,2,3.89,2.71c2.57,1.2,5.26,2.15,7.89,3.25a14.36,14.36,0,0,0,5.62,1.14c14.51-.06,29-.31,43.53.07a42,42,0,0,0,18.93-3.88c4.6-2.1,9.29-4,14-5.92a12,12,0,0,1,4.87-.81q34,.1,67.93.16a7.71,7.71,0,0,0,4.48-1,3.78,3.78,0,0,1,5,.82,1.28,1.28,0,0,1,.08,1.95c-1.43,1.44-3.21,2.1-5,1a8.09,8.09,0,0,0-4.47-1.05q-34.09,0-68.21-.13c-4.15,0-7.44,2.47-11.13,3.77-4.91,1.75-9.67,4-14.49,6a10.9,10.9,0,0,1-4.31.81q-26.19,0-52.4,0c-2.54,0-4.61-1.14-6.83-2-3-1.15-6-2.32-8.91-3.69C68.84,514.94,67.72,515.9,66.35,515.7Z" transform="translate(-10.05 -14.53)"/><path class="cls-6" d="M499,515.6c-5.72-.91-9.92,2.72-14.77,4.31a20.28,20.28,0,0,1-6.43,1.34q-25.78-.06-51.57,0c-4.62,0-8.33-2.72-12.45-4.19-4.74-1.7-9.34-3.82-14-5.77a9.59,9.59,0,0,0-3.79-.58q-34,.09-67.93.13c-1.46,0-3-.21-4.14,1-.17.17-.54.12-.79.23-1.72.76-3.07-.06-4.24-1.14a1.37,1.37,0,0,1,0-2c1.18-1.1,2.67-2.08,4.21-1.06,2.71,1.78,5.65,1.21,8.52,1.21,21,0,42,0,62.93-.18a23.64,23.64,0,0,1,9.6,2.13c5.41,2.29,10.84,4.53,16.25,6.83a20.42,20.42,0,0,0,8.3,1.62c16.08-.1,32.17-.15,48.25,0,3.92,0,7.09-1.72,10.5-3,2.06-.77,4.06-1.7,6.06-2.61,1.4-.62,2.29-1.49,1.07-3.06a3.78,3.78,0,0,0-.06-.47c1.32-.6,6.19.48,6.91,1.54A2.47,2.47,0,0,1,499,515.6Z" transform="translate(-10.05 -14.53)"/><path class="cls-2" d="M504.63,37.89a9,9,0,0,1-10.9-1.56A4.35,4.35,0,0,0,490,34.77q-33.27,0-66.55,0a16.15,16.15,0,0,1-7-1.4c-5.52-2.5-11.14-4.76-16.72-7.13-2.93-1.25-6-.66-9-.68-2.81,0-5.67-.55-8.34,1.18a3,3,0,0,1-3.77-.79,2,2,0,0,1-.1-2.56,2.75,2.75,0,0,1,3.46-1c4.22,2.3,8.69,1,13,1.23a18.9,18.9,0,0,1,6.7,1.41q8.2,3.56,16.45,7a9.92,9.92,0,0,0,4,1c11.37-.06,22.74,0,34.11-.05.74,0,1.7.47,2.17-.62a165.63,165.63,0,0,1-17.91-7.7c-3.58-.89-6.79-2.69-10.18-4.05-1.48-.61-2.87-1.19-4.46-.52a1.62,1.62,0,0,1-.54.1c-2,.1-3.86-.1-4.3-2.44-.29-1.55.8-2.46,2.21-2.9,2.05-.64,4.11-.44,4.84,1.73.59,1.77,1.76,2.35,3.17,3,3.35,1.46,6.68,2.94,10,4.41a151.07,151.07,0,0,1,17.17,7.24c5.66,2.86,11.74,1.6,17.67,1.78,4.8.14,9.61,0,14.42.05a3,3,0,0,0,2.88-1.48c3-4.26,10.3-4.19,13.43-.08C508.29,33.43,507.28,36.43,504.63,37.89Z" transform="translate(-10.05 -14.53)"/><path class="cls-2" d="M186.3,25.83c-1.11.73-2.23,1.59-3.81,1.06a29.73,29.73,0,0,0-23.4,1.82c-3.21,1.58-6.56,2.89-9.84,4.32a21.44,21.44,0,0,1-8.83,1.8c-21.82-.09-43.64,0-65.45-.06-1.88,0-3.31.17-4.66,2-2.61,3.58-10.45,2.62-12.54-1.25-1.05-1.95-.24-4.37,2.09-5.87,3.18-2.06,9.59-1.75,11.25,2.06.53,1.2,1.68,1.28,2.82,1.28,8.78,0,17.57,0,26.35,0,3.14,0,5.56-2.3,8.54-2.87l.06,1.2-2.28,1c-.43,0-1,0-.86.67.12.45.54.33.82,0l37.8,0,1.14-.34c6.75-2.88,13.42-6,20.29-8.52,3.37-1.24,7.16-.26,10.75-.4,1.73-.06,3.51.25,5-1a2.69,2.69,0,0,1,1.32-.38,3.57,3.57,0,0,1,3.62,1.45A1.49,1.49,0,0,1,186.3,25.83Z" transform="translate(-10.05 -14.53)"/><path class="cls-7" d="M456.69,536.73c.36-.25,1.07-.59,1-.75-.21-.9-1-.54-1.6-.54-7.21,0-14.46.42-21.63-.1a48.36,48.36,0,0,0-27.13,5.52,33,33,0,0,1-18.89,3.81c-2-.17-4-.17-5.82,1.15a3.12,3.12,0,0,1-4.05-.61,1.86,1.86,0,0,1-.12-2.55,3.35,3.35,0,0,1,4-1,27.33,27.33,0,0,0,19.31-.39c5.38-2.1,10.64-4.51,15.95-6.81a12.52,12.52,0,0,1,5.14-.83q33.56,0,67.11,0a4.41,4.41,0,0,0,3.8-1.54c3.08-3.37,9.21-3.52,12-.6s2.23,5.48-1,7.43a8.74,8.74,0,0,1-11.54-2.33,2.64,2.64,0,0,0-2.56-1.15c-8.69,0-17.38,0-26.07,0-2.89,0-5.1,2-7.83,2.45Z" transform="translate(-10.05 -14.53)"/><path class="cls-7" d="M107.71,538a26.07,26.07,0,0,0-13.35-2.59c-6.55.25-13.12.1-19.67,0a4.25,4.25,0,0,0-4.09,2.09c-2.58,3.9-10.78,3.18-12.87-1-1.11-2.19.18-4.95,2.91-6.24A8.44,8.44,0,0,1,71,532.59c1,1.23,2.29,1,3.53,1,19.87,0,39.74.3,59.59-.13a43.15,43.15,0,0,1,22.23,5.06,38.62,38.62,0,0,0,22.36,4.39,3.6,3.6,0,0,0,2.07-.58,5.88,5.88,0,0,1,2-.87c1.51-.38,2.69.44,3.67,1.4a1.51,1.51,0,0,1-.09,2c-.93.94-2.29,1.78-3.47,1.17-4.91-2.53-10.12-1.07-15.18-1.43-3.9-.27-7.07-2.49-10.58-3.78-3.87-1.42-7.62-3.18-11.4-4.85a7.8,7.8,0,0,0-3.23-.58c-11.09,0-22.17,0-33.26.08-.51,0-2.77-1.15-1.54,1.29Z" transform="translate(-10.05 -14.53)"/><path class="cls-8" d="M452.52,473.19c-1.26-.22-2.57-.17-3-1.62a2.07,2.07,0,0,1,1.12-2.77c1.25-.62.76-1.77.76-2.7q.06-12.62,0-25.21c0-2.05.38-3.51,2.31-4.82,5.43-3.69,10.55-7.85,16-11.55A4.58,4.58,0,0,0,472,420c-.12-2.95.19-5.94-.18-8.85-.65-5.15,1.89-8.82,4.9-12.5,5.9-7.22,11.65-14.55,17.42-21.88,1.28-1.63.56-8.1-.93-9.69s-1-3.53,1.18-4.25a3.89,3.89,0,0,1,4.51,1.14c1.23,1.53.06,2.6-1.31,3.52-.84.57-.69,1.74-.52,2.6,1.13,5.71-2.08,9.58-5.39,13.57-5.38,6.48-10.54,13.14-15.77,19.73a5.5,5.5,0,0,0-1,3.66c.05,4.44-.16,8.88.1,13.3a4.87,4.87,0,0,1-2.31,4.57c-5.81,4.28-11.62,8.54-17.52,12.68a2.67,2.67,0,0,0-1.23,2.52q0,13.44,0,26.87c0,.74-.12,1.6.61,2,1.15.67,1.69,1.63,1,2.72A3.6,3.6,0,0,1,452.52,473.19Z" transform="translate(-10.05 -14.53)"/><path class="cls-9" d="M409.69,495.5c-13.35,0-13.35,0-24.33-8.45-2.46-1.89-4.92-3.78-7.42-5.63a6.15,6.15,0,0,0-3.82-1.25c-12.1.07-24.21,0-36.32,0-1.21,0-2.4-.07-3.37.85-.18.17-.52.18-.78.26-1.6.51-3.15.46-4.31-.86a1.85,1.85,0,0,1,.06-2.56,3.36,3.36,0,0,1,4.32-.66c2.48,1.69,5.1,1.17,7.7,1.18,9.89,0,19.78.23,29.66-.08a16.44,16.44,0,0,1,11.36,3.74c4.5,3.57,9.18,6.91,13.81,10.33a6.39,6.39,0,0,0,4.08,1.31c4.25-.11,8.53.26,12.75-.09,6.84-.57,13,1.14,19.17,3.95,8.85,4.05,17.76,8,26.87,11.39a20.53,20.53,0,0,0,15.27-.17,6.79,6.79,0,0,1,1.59-.48,3.83,3.83,0,0,1,3.71,1.3,2,2,0,0,1,0,2.58c-1,1.1-2.54,1.85-3.72,1.18-4.5-2.58-9.33-1.27-14-1.58-2.76-.19-5.06-1.65-7.5-2.66-10.26-4.25-20.47-8.63-30.69-13a9.24,9.24,0,0,0-3.78-.64Z" transform="translate(-10.05 -14.53)"/><path class="cls-1" d="M452.42,95.22a3.81,3.81,0,0,1,3.14,1.55c.74,1.12.07,2-1,2.69-.83.51-.58,1.49-.59,2.29,0,8.78,0,17.55,0,26.32a3.11,3.11,0,0,0,1.54,2.91c5.82,4.08,11.51,8.34,17.23,12.56a4.9,4.9,0,0,1,2.3,4.6c-.25,4.23,0,8.49-.1,12.74a7.71,7.71,0,0,0,2.08,5.41c4.71,5.63,9.11,11.51,13.64,17.29a57.48,57.48,0,0,0,4.42,5.5c2.51,2.48,1.92,5.51,2,8.47,0,1.61-.46,3.4,1.7,4.22.34.13.6,1,.59,1.46,0,1.62-1.31,2.22-2.55,2.46-1.53.3-3.22.36-4.15-1.35a2.37,2.37,0,0,1,.85-3.16c.41-.34,1.08-.39,1.1-1.1.12-4.08.33-7.89-2.7-11.55-6.52-7.88-13.06-15.77-19-24.08a4.67,4.67,0,0,1-.87-3c0-4.52,0-9,0-13.57a3.92,3.92,0,0,0-1.91-3.63c-5.81-4.09-11.48-8.38-17.28-12.48-1.41-1-1.38-2.27-1.38-3.65,0-8.59,0-17.17,0-25.76,0-.94.42-2.06-.83-2.69a2.08,2.08,0,0,1-1-2.82C450,95.39,451.35,95.53,452.42,95.22Z" transform="translate(-10.05 -14.53)"/><path class="cls-8" d="M232.52,481.7c-6.13-2.73-12.55-1.19-18.82-1.43s-12.77.24-19.12-.15A16,16,0,0,0,183,484c-4.56,3.63-9.3,7-14,10.54a6.19,6.19,0,0,1-3.95,1c-4.43,0-8.89.29-13.3-.08-6.87-.58-13,1.35-19.11,4.16-8.76,4-17.78,7.46-26.62,11.28-3.33,1.43-6.74.71-10.11.89-2.19.11-4.3-.08-6.34,1.33a3.22,3.22,0,0,1-4.46-.86,2,2,0,0,1,0-2.7c1.3-1.46,2.86-1.47,4.55-1a1.35,1.35,0,0,1,.48.27c1.2,1.09,2.71.87,4.16,1.1,8.48,1.32,15.56-2.79,22.9-5.82,7.55-3.11,15-6.37,22.54-9.58a11.33,11.33,0,0,1,4.57-.9c6.1,0,12.2-.08,18.3.06a10.4,10.4,0,0,0,7.28-2.43c5-4,10.22-7.64,15.34-11.44a8.18,8.18,0,0,1,5.2-1.45c12,0,24,0,36,0,1.39,0,2.72.08,3.89-1a3.45,3.45,0,0,1,2.09-.52c1.73,0,3.33.68,3.3,2.47S234,481.37,232.52,481.7Z" transform="translate(-10.05 -14.53)"/><path class="cls-4" d="M245.92,59.36c-1.22,1.43-2.84,2.13-4.42,1.19-2.41-1.44-4.95-1.15-7.49-1.15-19.5,0-39-.09-58.5.22a40.92,40.92,0,0,1-18.7-3.69c-4.47-2.12-9.13-3.86-13.7-5.79A15.42,15.42,0,0,0,136.94,49q-24.4.11-48.8,0a16.76,16.76,0,0,0-7.45,1.58A59.93,59.93,0,0,1,72,54c-1.68.49-2.28,1.8-3.08,2.86-1.06,1.39.61.63,1,.9a2,2,0,0,0,0,.49c-2.43,1.45-4.13-.74-6.12-1.35-.48-.15-1.61-1.09-1.13-1.89s1.11-2.37,2.59-2.19c6.17.77,11-2.88,16.36-4.8a14,14,0,0,1,4.86-.85q25.65,0,51.3,0c5.21,0,9.41,2.93,14,4.56,4.06,1.44,8,3.31,11.94,5a13.37,13.37,0,0,0,5.36,1q34-.16,67.93-.21c1.29,0,2.6.07,3.68-.87a1.93,1.93,0,0,1,.74-.34A4.05,4.05,0,0,1,246,57.67,1.13,1.13,0,0,1,245.92,59.36Z" transform="translate(-10.05 -14.53)"/><path class="cls-4" d="M495.05,57.26a2.37,2.37,0,0,0-1.75-2.9c-3.93-1.54-7.81-3.22-11.72-4.82a9.53,9.53,0,0,0-3.79-.57c-14.7,0-29.4.24-44.09-.09a38.82,38.82,0,0,0-17.87,3.58c-4,1.87-8.21,3.25-12.16,5.19-5.81,2.85-11.94,1.8-18,1.82-19.68.07-39.37,0-59.06-.09a2.92,2.92,0,0,0-2.31.65,4.32,4.32,0,0,1-1.22.59c-1.72.82-3.06,0-4.25-1.09a1.35,1.35,0,0,1,0-2c1.1-1,2.52-2,4-1.2,3.73,2.1,7.76,1.28,11.63,1.31,20.33.16,40.67.1,61,.14a13.26,13.26,0,0,0,5.35-1.08c7.09-3,14.25-5.9,21.38-8.84a10.47,10.47,0,0,1,4.07-.64c17.2,0,34.39.07,51.58,0,4.67,0,8.38,2.55,12.52,4,2.56.86,4.84,2.46,7.89,1.64a2.63,2.63,0,0,1,3.45,2.31c.18,2-1.37,2.35-2.85,2.68-.72.17-1.82-.26-1.63,1.17l0,0a2.39,2.39,0,0,1-1.8-.35c0-.29,0-.57,0-.86s.05-.68-.47-.47Z" transform="translate(-10.05 -14.53)"/><path class="cls-6" d="M68.82,205.8c-1.17-.07-2.54-.13-3.06-1.64a2.31,2.31,0,0,1,1.12-3.08c1-.48.93-1.24.94-2.06a13.78,13.78,0,0,0,0-2.49c-.76-3.93,1.15-6.85,3.45-9.68q9-11.17,18-22.38a4.17,4.17,0,0,0,.63-2.9c0-4.8,0-9.6,0-14.4a3.36,3.36,0,0,1,1.6-3.18c5.66-4,11.11-8.26,16.76-12.26,1.88-1.33,2.83-2.68,2.78-5.1-.15-7.94-.06-15.88,0-23.82,0-1.37.09-2.63-1.27-3.65a1.86,1.86,0,0,1,0-3.11,3.9,3.9,0,0,1,5.1.13,1.84,1.84,0,0,1-.48,3.21c-1.44.78-1,2-1.05,3.16,0,8.49-.07,17,0,25.48a4.5,4.5,0,0,1-2.25,4.25c-6.06,4.21-12,8.63-18,12.92-1,.69-.81,1.53-.81,2.44,0,3.78-.2,7.59.08,11.35a11.7,11.7,0,0,1-2.91,8.77c-6.13,7.49-12.13,15.09-18.19,22.64a4,4,0,0,0-1,3.06c.42,3-1.23,6.3,1.89,8.95C73.53,203.54,71.47,205.77,68.82,205.8Z" transform="translate(-10.05 -14.53)"/><path class="cls-6" d="M92.36,414.75c-2.08,6,1.65,9.9,7.41,13.25,4.38,2.55,8.22,6,12.4,8.94,1.26.88,1.16,2,1.16,3.14q0,12.74,0,25.48c0,1.42-.29,2.83,1.5,3.75a1.74,1.74,0,0,1,0,2.88,4.09,4.09,0,0,1-4.91.38,1.81,1.81,0,0,1-.41-3.06c1.67-1.24,1.42-2.8,1.42-4.4,0-7.85-.11-15.7.07-23.54a5.16,5.16,0,0,0-2.56-4.72c-5.6-4.07-11.11-8.27-16.8-12.2A3.75,3.75,0,0,1,89.91,421c0-3.88-.22-7.77.08-11.63a10.63,10.63,0,0,0-2.72-8q-9.15-11.27-18.21-22.61a7.3,7.3,0,0,1-1.29-4.42c-.16-2.75,1-5.67-1.8-8.1-1.5-1.3.26-3.55,2.76-3.64a3.56,3.56,0,0,1,3.53,1.67c.71,1.3,0,2.23-1.25,2.88a1.71,1.71,0,0,0-.73,1.69,12.64,12.64,0,0,1,0,2.22c-.7,4.28,1.27,7.32,4,10.47,4.8,5.53,9.11,11.5,13.62,17.28.62.78,1.32,1.5,1.89,2.32C92.37,404.87,92.36,404.88,92.36,414.75Z" transform="translate(-10.05 -14.53)"/><path class="cls-9" d="M142.92,431.4c0,3.6,0,7.2,0,10.81,0,1.8-.28,3.6,1.17,5.2a1.91,1.91,0,0,1-.6,2.91,3.44,3.44,0,0,1-4.35-.32c-.84-.79-1.31-1.71-.24-2.7a3.71,3.71,0,0,0,1-3q0-13,0-26a3.77,3.77,0,0,0-2-3.55c-4.67-3.18-9.16-6.62-13.7-10-.6-.44-1.2-1.08-1.93-.8s-.52,1.3-.46,1.95c.25,2.67-.89,5.53,1.17,8,.78.93-.43,1.51-.94,1.91-1.27,1-2.67.5-3.83-.31a1.37,1.37,0,0,1-.12-2.2c1.66-1.13,1.2-2.72,1.23-4.2,0-2.22-.31-4.49.07-6.64,1-5.5-1.88-9.29-5.11-13.14-4.08-4.87-7.91-9.94-11.82-14.94a5.54,5.54,0,0,0-2.9-2.38c-1.27-.32-2-1-1.82-2.33a1.87,1.87,0,0,1,2-1.63c1.21-.05,2.81-.07,3,1.34.44,3.9,3.52,6,5.6,8.74,4.2,5.56,8.69,10.9,13,16.39.9,1.15.5,2.69.49,4.06a3.38,3.38,0,0,0,1.69,3.14c5.85,4.06,11.59,8.28,17.31,12.51a4.85,4.85,0,0,1,2.15,4.22C142.85,422.72,142.92,427.06,142.92,431.4Z" transform="translate(-10.05 -14.53)"/><path class="cls-1" d="M424.46,431.25c0,3.78,0,7.57,0,11.35,0,1.65-.57,3.36,1.35,4.66a1.8,1.8,0,0,1-.37,2.88,3.94,3.94,0,0,1-5.1-.31,1.73,1.73,0,0,1,.43-3c1.43-.76,1.12-2,1.13-3.14,0-8.12.15-16.24-.07-24.36-.08-3,1-4.58,3.35-6.19,5.55-3.81,10.89-7.94,16.31-12,.62-.46,1.61-.76,1.39-1.83-1-5,2.89-7.63,5.31-10.88,3.9-5.22,8.07-10.24,12.09-15.37a5.09,5.09,0,0,0,1-2.51,3.18,3.18,0,0,1,4.46-2.48,1.91,1.91,0,0,1,1.3,1.64,1.6,1.6,0,0,1-1,1.83c-3.7.9-5.11,4.27-7.19,6.77-4.28,5.16-8.12,10.68-12.32,15.92a4.59,4.59,0,0,0-1.16,3.17c0,4.15,0,8.31,0,12.46,0,1.16-.2,2.3,1.09,3.16a1.48,1.48,0,0,1,0,2.42,3.8,3.8,0,0,1-4.42.16c-1-.54-1.27-1.75-.46-2.33,1.95-1.38,1.38-3.21,1.25-5s.82-4.14-.31-4.66c-1.33-.61-2.77,1.48-4.12,2.48-4.25,3.14-8.49,6.28-12.8,9.33A2.52,2.52,0,0,0,424.4,418c.09,4.43,0,8.86,0,13.29Z" transform="translate(-10.05 -14.53)"/><path class="cls-10" d="M101,401.65q-9.62-12-19.21-24a5.9,5.9,0,0,1-1.29-3.85q.08-8.18,0-16.35a5.58,5.58,0,0,1,1.23-3.59c2.89-3.72,5.75-7.48,8.79-11.08a4,4,0,0,0,1.08-2.9q0-55.56,0-111.1c0-2.05-1.21-3.21-2.16-4.51-2.4-3.28-5.12-6.33-7.65-9.53a5.94,5.94,0,0,1-1.35-3.83c.06-5.45.16-10.9,0-16.35-.1-2.92,2-4.5,3.44-6.35,5.51-7.19,11.31-14.15,17-21.19l1.25,0c-4.68,6.91-10.41,13-15.32,19.74-1.48,2-3.17,3.95-4.8,5.89-.55.66-.36,1.4-.37,2.1,0,3.79.42,7.64-.12,11.35-.78,5.3,2.12,8.78,5,12.42,1.74,2.2,3.58,4.32,5.32,6.51a4.84,4.84,0,0,1,.8,3.16q0,56,0,111.92c0,2.8-1.87,4.3-3.18,6.18a108.34,108.34,0,0,1-6.88,8.8,3.55,3.55,0,0,0-1,2.64c0,3.69.44,7.45-.09,11.07-.81,5.48,2.09,9.08,5.19,12.85,4.61,5.6,9.08,11.31,13.57,17a2.45,2.45,0,0,1,.77,2C101.05,401,101,401.32,101,401.65Z" transform="translate(-10.05 -14.53)"/><path class="cls-9" d="M141,472.32c4.58-.43,9,.91,13.29-1,1.46-.65,2.47.28,3.48,1.07a.88.88,0,0,1,.11,1.43c-.88.8-1.88,1.91-3.13,1.34-4.09-1.88-8.41-.49-12.56-1.09-10.33-1.49-19.27,2.57-28.26,6.65-4.6,2.09-9.26,4-13.93,6a5.09,5.09,0,0,0-2.55,1.86,3.27,3.27,0,0,1-3.66,1.33c-1.13-.3-2-.8-1.91-2a1.8,1.8,0,0,1,2-1.85c4,.29,7.21-2,10.65-3.41,7.66-3.09,15.2-6.47,22.81-9.7a9.88,9.88,0,0,1,5.18-.6c2.59.33,4.61-.68,6.58-2.16q7.86-5.93,15.81-11.73a7.26,7.26,0,0,1,4.59-1.44c12.12.08,24.23,0,36.34.05,1.49,0,3,.11,4.14-1.11a1.08,1.08,0,0,1,.47-.28,4.39,4.39,0,0,1,4.59,1,1.42,1.42,0,0,1,.1,2c-1.21,1.29-2.94,2.17-4.46,1.19-2.26-1.44-4.6-1.12-6.95-1.13-10.36,0-20.72.11-31.07-.09a12.34,12.34,0,0,0-8.73,3.09c-3.56,3-7.48,5.53-11.27,8.23A3.15,3.15,0,0,0,141,472.32Z" transform="translate(-10.05 -14.53)"/><path class="cls-8" d="M424.06,471.48q-8.6-6.19-17.21-12.38a3.87,3.87,0,0,0-2.42-.33H368.09a4.59,4.59,0,0,0-3.14.77,4.46,4.46,0,0,1-1.8.65c-1.42.31-2.51-.5-3.45-1.34a1.47,1.47,0,0,1-.06-2c.89-1,2.18-1.8,3.43-1.31,8.31,3.24,16.93.94,25.39,1.51a94.29,94.29,0,0,0,13.86,0c4.2-.33,7.37,1.18,10.53,3.67,4.73,3.71,9.7,7.1,14.55,10.66.68.5,1.31,1.09,2.21,1,6.56-.91,11.91,2.66,17.58,4.89,6.66,2.62,13.2,5.55,19.77,8.39a8.45,8.45,0,0,0,3,.4c1.19.06,2.44.29,2.89,1.64a1.3,1.3,0,0,1-.66,1.62c-1.17.73-2.47,1.48-3.53.35-4.05-4.26-9.82-5-14.77-7.43-5.36-2.59-11-4.6-16.47-7a12,12,0,0,0-5.09-1c-5.64,0-11.28,0-16.92,0-1.57,0-3.15-.09-4.55.84a1.19,1.19,0,0,1-.51.2,3.32,3.32,0,0,1-3.26-1,1.57,1.57,0,0,1,.06-2.06,2.88,2.88,0,0,1,3.3-.78c4.37,2,8.91.49,13.34,1Z" transform="translate(-10.05 -14.53)"/><path class="cls-2" d="M478.85,366.4c-2.47,1.29-4,2.41-3.57,5.4.24,1.91-1.64,3-2.63,4.33-5.58,7.36-11.34,14.58-17.15,21.76a4.67,4.67,0,0,0-1.07,3.24c0,7-.2,14.05.1,21.06.15,3.32-1.12,5.27-3.67,7-3.55,2.4-6.91,5.07-10.43,7.5a2.64,2.64,0,0,0-1.48,2.08c-.2,1.87-1.75,1.92-3.14,1.87a2,2,0,0,1-2.11-2.1c.19-1.35,1.36-2,2.9-2,2.41.15,3.65-1.87,5.32-3.06,3.48-2.48,6.92-5,10.38-7.56V417.6l-9.23,6.28c0,1-.22,1.85-1.44,2-.84.08-1.79.12-2.05-.88s.74-1.09,1.4-1.3,1.25-.3,1.88-.45c2.67-2.45,5.4-4.81,8.85-6.13a7.45,7.45,0,0,0,.8-3.7c-.08-2.86.32-5.78-.1-8.58-.76-5,1.87-8.45,4.73-12q8-9.78,15.75-19.72c1.45-1.85.39-5-1.75-5.86s-4.25-2.13-4.15-4.85,2.2-4.08,4.55-4.87a8.75,8.75,0,0,1,8.85,2.21C483,362.73,481.38,365.08,478.85,366.4Z" transform="translate(-10.05 -14.53)"/><path class="cls-9" d="M383.12,83.1c4.52-3.29,8.64-6.27,12.73-9.28a5.77,5.77,0,0,1,3.67-.91c5.09,0,10.19-.29,15.25.07,5.44.38,10.29-1.12,15.15-3.25,9.5-4.16,19.08-8.14,28.62-12.2,3.46-1.47,7.11-.67,10.68-.86,1.8-.09,3.69.36,5.17-1.2.22-.24.68-.26,1-.35a4,4,0,0,1,4.26,1.21,1.81,1.81,0,0,1,.06,2.33,3.52,3.52,0,0,1-4.19,1.3c-8.5-3.67-16.17-1-23.94,2.53-9,4-18.11,7.61-27.16,11.45a12.08,12.08,0,0,1-4.85.84c-4.71,0-9.47.38-14.13-.11-5.7-.6-10,1.57-14.23,5C389.11,81.38,387.12,84,383.12,83.1Z" transform="translate(-10.05 -14.53)"/><path class="cls-9" d="M181.4,83c-3.43,1.16-5.08-1.52-7.3-2.76a6,6,0,0,1-1.24-1.08c-4-4-8.92-5.2-14.36-4.41-13.16,1.88-24.73-2.91-36.24-8.27-5.48-2.55-11.05-5-16.75-7-5.17-1.82-10.54-2.1-15.75.28a5.46,5.46,0,0,1-3,.16,2.71,2.71,0,0,1-2.32-2.41,2.6,2.6,0,0,1,2.26-2.41c.89-.14,2.12-.37,2.7.08,2.54,2,5.48,1.68,8.23,1.36,5.65-.67,10.43,1.76,15.32,3.8,9.14,3.82,18.22,7.79,27.34,11.69a11,11,0,0,0,4.56.85c6.47-.06,12.94,0,19.4-.05a8.38,8.38,0,0,1,5.83,1.9C173.67,77.68,177.53,80.25,181.4,83Z" transform="translate(-10.05 -14.53)"/><path class="cls-11" d="M42.35,156.44c-.54.23-.64.71-.69,1.22-2.24-1.46-3.38-3.92-5.2-5.78-1.2-1.22-1.91-3-3.17-4.1s-1.46-2.62-1.46-4.21q0-34.2,0-68.39c0-1.59.35-3.14-1.69-4.19-1.19-.63-1-2.3.36-3.18,1.77-1.11,3.7-1.06,5.05.45s.46,2.66-1.17,3.48c-.78.39-.5,1.31-.5,2q0,35.17,0,70.33c0,3.53,3.18,5.11,4.83,7.62C39.79,153.37,41.12,154.87,42.35,156.44Z" transform="translate(-10.05 -14.53)"/><path class="cls-1" d="M432.57,158l8.57,6.26c.43.31.77.88,1.4.57s.36-1,.38-1.48c0-1.57.08-3.14.1-4.7,0-1.17.22-2.3-1.09-3.15a1.51,1.51,0,0,1,0-2.6,3.66,3.66,0,0,1,4.4,0,1.48,1.48,0,0,1,.14,2.56c-1.15.83-1,1.86-1,2.93a48.36,48.36,0,0,1-.06,6.92c-.85,5.42,1.21,9.62,4.61,13.61,4.29,5,8.31,10.28,12.41,15.46a5.59,5.59,0,0,0,3.25,2.33,1.77,1.77,0,0,1,1.4,2.1,1.8,1.8,0,0,1-1.91,1.64c-1.95.08-3.73-.07-3.86-2.66-.12-2.44-2.11-3.86-3.44-5.47-4.65-5.66-8.7-11.82-13.76-17.16a4.82,4.82,0,0,1-1.08-4.17c.34-2.17-.91-3.38-2.42-4.5-2.34-1.73-4.64-3.55-7.08-5.14C432.35,160.53,432.14,159.72,432.57,158Z" transform="translate(-10.05 -14.53)"/><path class="cls-9" d="M100.45,200.48c-1.33-.09-2.31-.32-2.63-1.53-.24-.92.09-2,.88-2.1,3.09-.49,4.09-3.27,5.69-5.2,4.86-5.86,9.34-12,14.11-18a3.93,3.93,0,0,0,.88-2.73q0-6.36,0-12.74c0-1,.14-1.91-.95-2.65a1.54,1.54,0,0,1-.07-2.62c1.21-.85,2.63-1.27,4.07-.11,1.08.87,1,1.4.21,2.57-1.73,2.65-.78,5.76-.64,8.62.07,1.43,1.4.32,2-.11,2.23-1.57,4.4-3.24,6.62-4.84.59-.43,1.34-1.4,1.94-.41.47.75,0,1.67-.9,2.31-2.86,2-5.62,4.05-8.47,6-.73.51-1.49,1.06-1.33,1.92.93,4.91-2.76,7.69-5.18,10.91-4.23,5.65-8.81,11-13.26,16.53a2.59,2.59,0,0,0-.49,1.81C103,200,101.69,200.4,100.45,200.48Z" transform="translate(-10.05 -14.53)"/><path class="cls-1" d="M187.83,76.76c1.88,2,3.43,3.43,6,3.41,9-.08,17.92,0,26.88,0,1.11,0,2.21.06,3.06-.9a3.34,3.34,0,0,1,1.23-.58,3.86,3.86,0,0,1,4.08.94,1.61,1.61,0,0,1,.18,2.28c-1.12,1.22-2.63,1.93-4.21,1.11-2.09-1.08-4.26-1-6.46-1-8.4,0-16.81-.07-25.21,0-4.47,0-6.81-3.6-10.14-5.51-.6-.34-.32-1.17.43-1.51a6.23,6.23,0,0,1,2.71-.43q5.67,0,11.36,0c1.72,0,3.54.34,4.87-1.23a.53.53,0,0,1,.25-.12,4.47,4.47,0,0,1,4.66.8,1.62,1.62,0,0,1,.19,2.28,4,4,0,0,1-4.49,1.26A41.77,41.77,0,0,0,187.83,76.76Z" transform="translate(-10.05 -14.53)"/><path class="cls-6" d="M207.15,486.46c4.07,0,8.14,0,12.2,0,1.85,0,3.69.12,5.37-.88a2.32,2.32,0,0,1,.78-.26,3.67,3.67,0,0,1,3.72,1.24,1.56,1.56,0,0,1,0,2.07c-1,.92-2.25,1.73-3.73,1.24-10.71-3.55-21.72-.77-32.56-1.57a2.63,2.63,0,0,0-1.8.51c-.94.93-3.14,1.21-2.73,2.66.34,1.2,2.29.43,3.5.49,2.22.11,4.44,0,6.66,0,1.45,0,3,.28,4.17-.94.11-.11.34-.12.51-.17a4.16,4.16,0,0,1,4.34,1,1.61,1.61,0,0,1,.08,2.29c-1.18,1.2-2.88,1.9-4.26,1-3.35-2.15-7-1.13-10.45-1.32-2.58-.15-5.18,0-7.76-.09-.76,0-1.8,0-2.09-1s.75-1.07,1.25-1.54c3.77-3.58,8-5.5,13.42-4.83C200.83,486.78,204,486.46,207.15,486.46Z" transform="translate(-10.05 -14.53)"/><path class="cls-6" d="M376.72,491.76c-1.47-1.86-2.94-3.52-5.48-3.52H343.78a3.54,3.54,0,0,0-2.56.77A4.52,4.52,0,0,1,339,490a3.59,3.59,0,0,1-3.25-1.15,1.73,1.73,0,0,1-.1-2.31,3.24,3.24,0,0,1,3.21-1.22c10.85,2.64,21.85.61,32.77,1.13,4.15.2,6.56,3.07,9.22,5.39,1.41,1.23-.34,2-1.64,2-4.25,0-8.5.06-12.75,0a6.85,6.85,0,0,0-4.2.94,3.92,3.92,0,0,1-1.79.65,3.26,3.26,0,0,1-3.36-1.39,1.77,1.77,0,0,1,.33-2.3,3.69,3.69,0,0,1,3.87-.81C366.31,493.19,371.54,491.41,376.72,491.76Z" transform="translate(-10.05 -14.53)"/><path class="cls-1" d="M469.7,438c-3.27,1.46-5.21,3-5,6.65.33,5.52.07,11.08.09,16.62,0,1.24-.15,2.35,1.37,3.24,1.67,1,1.11,3.13-.77,3.79a3.79,3.79,0,0,1-4.34-.85c-1.16-1.33-.36-2.46.95-3.43.68-.5.3-1.57.3-2.38,0-6.28.07-12.56,0-18.85a3.86,3.86,0,0,1,1.94-3.87c1.72-1,3.2-2.44,4.86-3.57s3.5-.29,3.57,1.88c.07,2.58.06,5.17,0,7.76,0,1.69,0,3.26,1.57,4.43s0,1.91-.63,2.55a3.29,3.29,0,0,1-4.33.25c-1.39-.93-.89-2.2-.27-3.65C470.45,445.27,469.25,441.75,469.7,438Z" transform="translate(-10.05 -14.53)"/><path class="cls-1" d="M376.67,76.78c-5.26.24-10.53-1.47-15.62.82a3.37,3.37,0,0,1-3.79-1,1.72,1.72,0,0,1-.08-2.31c.94-1.15,2.45-1.91,3.67-1.22,4.79,2.72,9.93,1.06,14.89,1.51,1.19.11,2.4,0,3.61,0,.77,0,1.52.11,1.8,1s-.36,1.39-.92,1.84c-3.68,3-7.43,5.12-12.64,4.74C360.42,81.61,353.17,82,346,82c-2.11,0-4.23-.19-6.18,1a2.87,2.87,0,0,1-2.67-.06c-1-.41-1.88-.81-1.84-2.1s.87-1.71,1.86-2.12a2.69,2.69,0,0,1,2.66,0c2.61,2,5.6,1.42,8.49,1.43,7.49,0,15-.08,22.47.07C373.5,80.25,375,78.61,376.67,76.78Z" transform="translate(-10.05 -14.53)"/><path class="cls-6" d="M95.13,130.42c3.71-1.53,5.34-3.58,5-7.45-.42-4.76-.08-9.6-.11-14.4,0-1.82.59-3.78-1.73-5-.92-.47-.81-1.89-.06-2.73a3.37,3.37,0,0,1,4.31-.54c1.17.61,2.85,1.58.79,3.26-.95.78-.83,2-.82,3.09,0,6.1-.09,12.2,0,18.29,0,2.15-.49,3.67-2.35,4.83-1.62,1-3,2.32-4.64,3.38-1.81,1.2-3.28.44-3.34-1.7-.07-2.49,0-5,0-7.48,0-1.75.54-3.67-1.72-4.75-.71-.34-.75-1.56-.18-2.26a3.86,3.86,0,0,1,5-.94c1.7.85,1.27,2.17.53,3.74C94.26,123.1,95.52,126.66,95.13,130.42Z" transform="translate(-10.05 -14.53)"/><path class="cls-7" d="M95.1,438c.57,4.13-1.08,8,1.23,11.67.68,1.06,0,2.21-1.14,2.72a3.94,3.94,0,0,1-4.81-.83,1.74,1.74,0,0,1,.6-2.82c1.38-.62,1.23-1.66,1.23-2.76,0-2.95,0-5.91,0-8.87,0-2.26,1.58-3.08,3.45-1.77s3.88,3,5.9,4.44c1.17.81.91,1.92.91,3,0,6.28,0,12.56,0,18.84,0,1.2-.16,2.44,1,3.3s1,1.65-.09,2.62a3.58,3.58,0,0,1-4.79.32,1.81,1.81,0,0,1-.2-3.08c2-1.18,1.64-2.86,1.64-4.54,0-5.08,0-10.16,0-15.24C100,440.5,100,440.5,95.1,438Z" transform="translate(-10.05 -14.53)"/><path class="cls-1" d="M469.75,130.45c-.67-4.26.95-8.27-1.33-12-.55-.91.19-2,1.22-2.48,1.33-.56,2.8-.72,3.88.42.6.64,1.58,1.63.51,2.61-1.58,1.46-1.34,3.3-1.34,5.12,0,2.4.06,4.8,0,7.2-.07,2.16-1.8,3-3.58,1.76-1.43-1-2.77-2.09-4.21-3a5.34,5.34,0,0,1-2.62-5.24c.22-5.62.08-11.26.07-16.89,0-1.6.32-3.19-1.32-4.47a1.77,1.77,0,0,1,.4-2.88c1.67-.92,3.61-1.22,5.13.29a1.88,1.88,0,0,1-.36,3.11c-1.54.79-1.37,2-1.37,3.24,0,5.35.24,10.72-.09,16.06C464.49,127,466.12,129,469.75,130.45Z" transform="translate(-10.05 -14.53)"/><path class="cls-2" d="M474.93,195.34c-.55.17-1.18-.73-1.68.13-3.12-2.81-5.3-6.42-8-9.61-4.2-5-8-10.36-12-15.47a4,4,0,0,1-.82-2.76c0-4.34,0-8.68,0-13,0-1.13,0-2.23-.91-3.05a2.6,2.6,0,0,1-2.15-1.56c-2.38-1.36-4.83-2.62-6.57-4.84-.44-.09-.89-.14-1.32-.27-.79-.22-1.95,0-1.95-1.33,0-.69.66-.83,1.16-.92,1-.17,2-.21,2.28,1.13.08.35.14.71.2,1.06a22.07,22.07,0,0,1,6.6,4.77l-.2.21.21-.2h0l2.53,1.16v-8.13q-6.92-5.16-13.84-10.32a3.92,3.92,0,0,0-2.41-.42A2.47,2.47,0,0,1,433.6,130a2.06,2.06,0,0,1,1.75-2.16c1.26-.26,3.15-.37,3.37,1,.56,3.41,3.62,4.19,5.68,5.84,2.54,2,5.26,3.92,8,5.72a4.29,4.29,0,0,1,2.1,4.11c-.05,7.11.16,14.23-.11,21.33a9.06,9.06,0,0,0,2.36,6.45c5.82,7.08,11.58,14.21,17,21.58C474.14,194.4,475,194.52,474.93,195.34Z" transform="translate(-10.05 -14.53)"/><path class="cls-2" d="M485,499.23c-3,2-9.5,1.77-11.59-2.44-.56-1.12-1.48-.87-2.36-.92-2-.12-4.06.36-6-.64-10.76-4.47-21.53-8.91-32.26-13.45a12.4,12.4,0,0,0-5.08-1c-9.52,0-19.05-.25-28.55.13a17,17,0,0,1-11.75-4.13c-2.65-2.08-5.52-3.87-8.18-5.93a4.85,4.85,0,0,0-3.19-1.33,2.13,2.13,0,0,1-2.44-1.78A1.84,1.84,0,0,1,375,465.6c1.19-.37,2.91-.51,3.28.61,1.46,4.48,5.9,5.6,8.89,8.31,1.55,1.41,3.39,2.47,5.06,3.75a6.58,6.58,0,0,0,4.38,1.28c2.58-.07,5.17,0,7.76,0,.49-.95-.25-1.26-.84-1.7q-3.66-2.78-7.3-5.59c-1-.27-2.82.42-2.54-1.43.18-1.22,1.46-1.41,2.54-.53,2.4,3.24,6.3,4.78,8.9,7.79a7.18,7.18,0,0,0,4.83,1.33c3.5-.15,7,.2,10.51-.1,7.19-.61,13.74,1.07,20.22,4.1,7.55,3.52,15.35,6.5,23,9.74a8.32,8.32,0,0,1,1.33.92,6.77,6.77,0,0,0,1.6.35c2.67-.12,5.31,1.35,7.64-2.12,2.73-4,9.8-3.16,12.54.9C488.35,495.47,487.63,497.5,485,499.23Z" transform="translate(-10.05 -14.53)"/><path class="cls-2" d="M406.61,533.62l0,0s0,0,0,0c.34.91-.92.85-1.5,1.19A24.82,24.82,0,0,1,392,538c-14.69-.21-29.39-.08-44.08-.08H300.47c-1.64,0-3.34-.24-4.65,1.16a2.16,2.16,0,0,1-1,.46,3.9,3.9,0,0,1-4.05-1,1.65,1.65,0,0,1,0-2.3c1-1.2,2.63-1.89,3.95-1.07,3.77,2.34,7.87,1.5,11.84,1.51,27.82.06,55.63,0,83.45.1,5.18,0,10.07-.43,14.63-3,.66-.37,1.57-1,2-.16A.17.17,0,0,0,406.61,533.62Z" transform="translate(-10.05 -14.53)"/><path class="cls-2" d="M406.65,533.64l0-.09c.1-1.12.92-1.17,1.74-1.21l.75.81A2.32,2.32,0,0,1,406.65,533.64Z" transform="translate(-10.05 -14.53)"/><path class="cls-12" d="M406.65,533.64l0,0a.17.17,0,0,1,0-.07Z" transform="translate(-10.05 -14.53)"/><path class="cls-4" d="M102.59,75.65a24.6,24.6,0,0,0-3.87-1.4c-3.18-.6-6.21-1.38-8.76,2.1-2.74,3.74-10.56,2.59-12.64-1.48-1-1.88.31-4.57,2.75-5.85a8.3,8.3,0,0,1,10.64,2,3.85,3.85,0,0,0,3.59,1.48,13.83,13.83,0,0,1,8.92,2.26A1,1,0,0,1,102.59,75.65Z" transform="translate(-10.05 -14.53)"/><path class="cls-13" d="M163.71,31.71a10.74,10.74,0,0,1,5.6-1.13q47.43,0,94.86,0c1.73,0,3.35.13,4.9-1.25a3.05,3.05,0,0,1,4.07.29,1.92,1.92,0,0,1,.38,2.54,3,3,0,0,1-4.61.69,5.86,5.86,0,0,0-3.85-1.05q-47.84,0-95.69,0a19.5,19.5,0,0,0-5.61,1.13Z" transform="translate(-10.05 -14.53)"/><path class="cls-13" d="M399.58,32.32a19.39,19.39,0,0,0-5.48-.51H300.4c-1.63,0-3.32-.25-4.67,1.06a2.26,2.26,0,0,1-1,.46,3.8,3.8,0,0,1-4-1.2,1.49,1.49,0,0,1,0-2.05c1.11-1.1,2.72-1.9,4-1,3.12,2.19,6.53,1.48,9.85,1.49q45.33.06,90.65,0c1.46,0,3-.19,4.32.59C399.58,31.57,399.58,32,399.58,32.32Z" transform="translate(-10.05 -14.53)"/><path class="cls-3" d="M481.53,206a5.09,5.09,0,0,1-3.29,4.29c-3.2,1.48-7.18,1.16-9.33-.85-2.88-2.68-2.66-6.49,1-7.57,4-1.17,3.66-3.53,3.31-6.4.5-.86,1.13,0,1.68-.13a4.88,4.88,0,0,1,.34,1.59c-.36,2.5.37,4.07,3,4.8A4.38,4.38,0,0,1,481.53,206Z" transform="translate(-10.05 -14.53)"/><path class="cls-3" d="M98.28,495.61a12.87,12.87,0,0,1-2.45.24A6,6,0,0,0,90,498.31c-2.82,3.53-10.25,2.57-12.53-1.31-1.07-1.81.06-4.62,2.39-6a8.36,8.36,0,0,1,10.84,2c2.33,2.83,5.26,1.6,8.06,1.35Z" transform="translate(-10.05 -14.53)"/><path class="cls-2" d="M131,129.9a1.49,1.49,0,0,1-1.29,1.57c-5.22.57-8.28,4.71-12.28,7.31-.69.44-1.3,1-2,1.4-2.52,1.31-3,3.38-3.24,6.11-.22,2.37.33,4.72-.3,7.13s.37,5.07.59,7.61c.57,6.65-2.29,11.61-6.45,16.39-4.75,5.47-9.11,11.28-13.57,17-1.5,1.92-1.13,4.18-.68,6.38a21.3,21.3,0,0,1,2.88.87c3.79,1.74,4.26,5.42,1.07,8-2.44,2-7.59,2.07-10.14.19-3.28-2.43-3.29-6.68.47-8,3.14-1.12,3.77-2.77,3.55-5.53,0-.33.26-.67.39-1,1.83-3.59,4.87-6.25,7.27-9.41,3.89-5.13,7.93-10.14,11.91-15.2a5.14,5.14,0,0,0,.75-3.44c0-7.67,0-15.34,0-23a3.18,3.18,0,0,1,1.37-3c4-2.8,7.74-5.82,11.7-8.61a6.36,6.36,0,0,0,2.4-2.8c.76-1.71,2.17-2.67,4.28-1.72C130.5,128.49,131,129,131,129.9Z" transform="translate(-10.05 -14.53)"/><path class="cls-2" d="M161.61,477l-.6.28c.07-.21.15-.41.22-.62.26-.83,1.07-.84,1.71-1.11.18-.19.36-.38.55-.56h0c.25-.82,1.07-.82,1.67-1.13l.56-.53c.27-.81,1.11-.77,1.68-1.14.41-.67-.14-2,1.35-1.94,1.14-.77,2.37-.59,2.49.72.14,1.51-1.37,1.28-2.43,1.29l-1.1.3a1.75,1.75,0,0,1-1.64,1.13l-.54.55a1.84,1.84,0,0,1-1.7,1.09l-.57.53A1.72,1.72,0,0,1,161.61,477Z" transform="translate(-10.05 -14.53)"/><path class="cls-2" d="M191.2,467.56c-.07.79-.42,1.54-1.24,1.64-5.88.68-9.4,5.32-13.79,8.39-3,2.1-5.79,3.36-9.54,3.26-9.68-.23-19.38.08-29.06-.15-4.27-.1-7.61,2.07-11.32,3.42-.51.19-1,.32-1.58.47l-.69-.81c5.31-2.82,10.72-4.94,17-4.45,4.77.37,9.59.06,14.38.07a5.14,5.14,0,0,0,3.42-.78c.24-.59.56-1.1,1.3-1,.23,0,.51.15.34.52s-.68.45-1.11.48c.31,1.24,1.3.77,2,.78,10.29.16,10.33.22,18.94-6.91,2-1.65,4.81-2.41,5.55-5.67.34-1.49,2.63-1.81,4.35-1.05A1.7,1.7,0,0,1,191.2,467.56Z" transform="translate(-10.05 -14.53)"/><path class="cls-2" d="M131,438.52a1.64,1.64,0,0,1-1.31,1.84c-1.45.49-2.95.68-3.65-.85-1.66-3.65-5.21-5.13-8-7.43a14.63,14.63,0,0,0-3.26-2.49c-4.36-1.83-5.17-5.1-4.92-9.46.35-6.26.06-12.56.1-18.83a6.68,6.68,0,0,0-1.77-4.68c-4.18-5-8-10.28-12-15.46-2-2.64-4.51-4.93-6.09-7.91a7.69,7.69,0,0,0-4.9-7.48c-2.83-1.34-2.55-4.65-.07-6.72,3.26-2.7,8.94-2.37,11.43.65,2.18,2.65,1.65,5.28-1.48,6.88a23.78,23.78,0,0,1-3.36,1.16c-.73,3.31.31,5.91,2.55,8.51,4.48,5.21,8.6,10.74,12.87,16.14.73.91,1.4,1.89,2.21,2.73,2.86,2.94,3.35,6.51,3.1,10.39-.17,2.76,0,5.53,0,8.3a3.85,3.85,0,0,0,1.17,3.24,43.88,43.88,0,0,1,8.81,6.4c.88.26,2.11-.15,2.48,1.14a1,1,0,0,1-.6,1.11c-.69.37-1.47.46-2-.22a6.05,6.05,0,0,1-.56-1.76c-3.29-1.34-5.51-4.29-9-6V426c4.39,3.26,8.8,6.51,13.18,9.8a3.91,3.91,0,0,0,2.27.8C129.35,436.68,130.77,436.85,131,438.52Z" transform="translate(-10.05 -14.53)"/><path class="cls-9" d="M534.36,500.24c-1.61,1.41-3.24,1.48-4.73.31s-1.08-2.7.38-3.67a2.34,2.34,0,0,0,1.06-2.31q0-35.07,0-70.13c0-1.27-.76-2-1.17-2.92a1.27,1.27,0,0,0,1.24-.76c1.29,1.12,1.12,2.65,1.12,4.12q0,34.5,0,69c0,1.39.16,2.37,1.48,3.2C534.76,497.73,536.15,498.67,534.36,500.24Z" transform="translate(-10.05 -14.53)"/><path class="cls-5" d="M509.47,493.66v.59c-5.59,2.3-11.19,4.54-16.74,6.92a15,15,0,0,1-6.39,1.35,132.8,132.8,0,0,0-14.11.05c-7.33.64-13.86-1.42-20.41-4.41-8.41-3.85-17.06-7.19-25.6-10.75v-.89c5.15,1.14,9.69,3.83,14.53,5.75,6.74,2.66,13.37,5.61,20.05,8.44a10,10,0,0,0,4,.78,80,80,0,0,1,9.42,0c10.53,1.13,20.21-1.35,29.48-6.17C505.47,494.45,507.29,493.29,509.47,493.66Z" transform="translate(-10.05 -14.53)"/><path class="cls-11" d="M56.65,493.69c0,.28,0,.56,0,.83-2.76-.06-5.53-.1-8.3-.19a3.4,3.4,0,0,0-2.22.88c-1.22.92-2.63,1.38-4.08.35-1.14-.81-2.18-1.64-.31-2.81a2.92,2.92,0,0,0,1.21-2.88c0-3.23,0-6.46,0-9.69,0-.71.21-1.52-.46-2.07-1.28-1.07-.82-1.93-.11-3.23a5.51,5.51,0,0,0-.19-6c-.76-1.1-.8-2.22.43-2.8a2.85,2.85,0,0,1,3.72.77,1.32,1.32,0,0,1-.23,1.78c-2.51,2.3-2.46,4.51,0,6.81a1.3,1.3,0,0,1-.18,2.16c-1.81.73-1.41,2.15-1.42,3.47,0,2.77,0,5.54,0,8.3,0,3,1.1,4,4.12,4.12Z" transform="translate(-10.05 -14.53)"/><path class="cls-11" d="M101,341q0-17.73,0-35.45c0-1.17.14-2.29-1-3.22-1.79-1.39-1.45-2.61.76-3.41a3.17,3.17,0,0,1,3.71,1.07c.87,1.1.15,1.94-1,2.58s-.77,2-.77,3c0,11,0,22,0,32.95,0,1.32.4,2.87-1.37,3.54C101.11,341.7,101,341.33,101,341Z" transform="translate(-10.05 -14.53)"/><path class="cls-9" d="M518.3,73.86a3,3,0,0,1,3.05-1.47c1.71.06,2.92,1.91,1.85,2.91-1.61,1.51-1.42,3.26-1.42,5.07,0,2.49,0,5,0,7.47a3.43,3.43,0,0,0,.78,2.81,1.69,1.69,0,0,1-.11,2.67c-2.05,2.08-1.93,4.13.09,6.16a1.61,1.61,0,0,1-.07,2.64,2.67,2.67,0,0,1-3.55-.23c-1-.78-.61-1.67.33-2.52,1.58-1.42,1.47-4.55-.15-6.14-.8-.78-1.2-1.79-.23-2.3,1.75-.94,1.39-2.39,1.4-3.8,0-2.49-.13-5,.05-7.46A4.56,4.56,0,0,0,518.3,75Z" transform="translate(-10.05 -14.53)"/><path class="cls-11" d="M46.68,75c-2.23,1-2.3,3-2.21,5,.11,2.49,0,5,0,7.48,0,1.23-.34,2.53,1.34,3.26,1,.43.82,1.51.08,2.33-2,2.19-2,4.47-.12,6.38.69.69,1,1.48.33,2.16a2.84,2.84,0,0,1-3.52.71c-.74-.42-1.65-1.2-.93-2.18,1.94-2.67,1.78-5.23-.08-7.81a.77.77,0,0,1,0-1c2.73-4.46.7-9.35,1.24-14,0-.38-.35-.81-.55-1.2-.41-.84-2.42-1-1.25-2.48a3.22,3.22,0,0,1,4.42-.94,3.71,3.71,0,0,1,1.19,1.1Z" transform="translate(-10.05 -14.53)"/><path class="cls-11" d="M102.09,226.94c.7,1,.48,2.13.48,3.22q0,16.32,0,32.63c0,1.45-.15,2.74,1.51,3.78,1.32.83.63,2-.75,2.66a3.27,3.27,0,0,1-4.26-.73c-1.11-1.33.44-2,1.31-2.76A2,2,0,0,0,101,264q0-18,0-35.94a4.52,4.52,0,0,0-.26-1.07Z" transform="translate(-10.05 -14.53)"/><path class="cls-8" d="M94.47,78.42a2.15,2.15,0,0,1,1.81.49c3.86,4.17,9.43,5,14.23,7.31,4,2,8.24,3.61,12.41,5.3,1,.4,1.83.86,1.31,1.91-.44.86-1.29.14-1.92-.13-7.86-3.3-15.74-6.56-23.56-10a12.31,12.31,0,0,0-4.52-.94c-1.28,0-2.5-.55-2.39-2.09S93.18,78.49,94.47,78.42Z" transform="translate(-10.05 -14.53)"/><path class="cls-2" d="M523.26,494.87a2.18,2.18,0,0,1-3.11.92c-3.37-2.27-7.11-1.2-10.68-1.54v-.59c2.3,0,4.61,0,6.91-.11,2.88-.09,3.92-1.18,3.93-4s0-5.9,0-8.85c0-1.18.15-2.26-1.27-3-1-.55-.85-1.64,0-2.56,1.82-1.86,1.76-4.12-.09-6.22-.71-.81-1-1.75-.06-2.41a2.81,2.81,0,0,1,3.58-.14,1.5,1.5,0,0,1,.19,2.42c-2.27,2.17-2.34,4.28-.07,6.47.48.47.9,1.2.42,1.74-2.93,3.28-1.53,7.26-1.84,10.95-.15,1.79-.39,3.68,1.72,4.8A1.45,1.45,0,0,1,523.26,494.87Z" transform="translate(-10.05 -14.53)"/><path class="cls-1" d="M447.23,91.18a.6.6,0,0,1-.44-.5,1.42,1.42,0,0,1,1-1.75q3.53-1.55,7.08-3c3-1.26,6.14-2.42,9.14-3.78,1.34-.61,2.92-.85,3.66-2.64a2.54,2.54,0,0,1,2.94-1c1,.31,2.25.45,2.3,1.94.05,1.34-1.12,1.82-2,1.93-7.88,1.07-14.47,5.48-21.71,8.17C448.69,90.69,448.16,90.86,447.23,91.18Z" transform="translate(-10.05 -14.53)"/><path class="cls-1" d="M514.91,157.09l-1,.41c-2.51-1.73-3.72-4.57-5.73-6.74-2.23-2.41-3.6-5.6-7.12-6.8-1.79-.61-1.65-2-.11-3.05a3.7,3.7,0,0,1,5.51.8c.15.22.5.54.45.63-2.86,4.91,2.88,6.09,4.11,9.24C511.85,153.6,514.12,154.89,514.91,157.09Z" transform="translate(-10.05 -14.53)"/><path class="cls-14" d="M148.23,81.7c-6.78,1.33-13-.49-19.12-3.23-9.26-4.13-18.69-7.88-28.06-11.79V66.1c1.48-.38,2.66.46,3.89,1,10.54,4.39,21.09,8.76,31.58,13.29,2,.86,4,.6,5.94.7s3.86.09,5.79.13C148.24,81.37,148.23,81.53,148.23,81.7Z" transform="translate(-10.05 -14.53)"/><path class="cls-11" d="M107.71,538v-1.16c5.75,1.6,11,4.4,16.49,6.7,3.77,1.59,7.77,2.71,11.24,5v1.14C126.07,546,116.9,542,107.71,538Z" transform="translate(-10.05 -14.53)"/><path class="cls-2" d="M57.3,321c.05,2-1.26,3-2.23,4.2C49.59,332.12,44,339,38.5,346c-.82,1-.64,2.27-.64,3.45,0,17.92-.17,35.84.1,53.75.07,4.54-3,6.8-5.12,9.82-2.2,3.19-5,6-7.18,9.16-1.3,1.89-.47,4.33-.51,6.52,0,1.81-.56,3.66,1.56,5.13,1.2.83.66,2.45-1.07,3.17a3.63,3.63,0,0,1-4.51-.88c-1-1.22-.38-2.37,1-3.1.65-.34.61-1.07.6-1.73a10.47,10.47,0,0,0,0-1.94c-1.19-6,2.09-10.16,5.71-14.28,2.38-2.73,4.47-5.71,6.72-8.57.52-.67.31-1.41.31-2.12,0-7.76,0-15.51,0-23.27,0-.71.6-1.8-.54-2.13-.92-.27-1.08.77-1.55,1.29a14.64,14.64,0,0,1-1.63,1.4c-1,2.88-3.37,4.86-5.07,7.26-2.5,3.52-5.39,6.76-8.07,10.15a1.73,1.73,0,0,1-1.3.86c-.06.54-.36,1.34-.12,1.57,1.53,1.44.73,2.56-.4,3.58-1.39,1.25-3,1.13-4.62.48a20.34,20.34,0,0,1-2.13-1.2v-2.22c1.78-1.39,4-1.6,6.05-2.24,1.62-3.84,5-6.31,7.28-9.71,2-3.07,4.72-5.67,6.71-8.8.21-.33.73-.48,1.11-.71a3.65,3.65,0,0,1,.63-1.21c3.9-3.29,3.87-7.68,3.73-12.24-.19-6.18,0-12.38-.06-18.56a6.86,6.86,0,0,1,1.82-4.7c4.76-5.82,9.06-12,14-17.63,3.17-3.56,3.89-7.31,3.6-11.74a92.48,92.48,0,0,1,0-10.79,4.16,4.16,0,0,0-1.9-3.93c-3.32-2.41-6.68-4.76-9.93-7.25A6.88,6.88,0,0,0,39,290.82c-1.21,0-2.67-.26-2.84-2a2.11,2.11,0,0,1,2-2.47c1.55-.28,3.75-.6,4.06,1.19.58,3.26,3.33,4.14,5.3,5.8a93.46,93.46,0,0,0,8.65,6.18,2.68,2.68,0,0,1,1.09,2.63C57.26,308.39,57.16,314.68,57.3,321Z" transform="translate(-10.05 -14.53)"/><path class="cls-11" d="M456.69,536.73l0,1.14c-5.2,3-10.9,4.79-16.33,7.21-3.35,1.48-6.8,2.74-10.2,4.1l-.73-.77c6.05-3.27,12.55-5.51,18.83-8.25C451.06,539,453.89,537.87,456.69,536.73Z" transform="translate(-10.05 -14.53)"/><path class="cls-14" d="M462.84,66.71C451.06,71.84,439.29,77,427.32,81.65V81c4.36-2.51,9.14-4.09,13.73-6.1,6.53-2.85,13.12-5.58,19.67-8.39a4.38,4.38,0,0,1,2.13-.4Z" transform="translate(-10.05 -14.53)"/><path class="cls-4" d="M201.24,500.81c-1.68,1.3-3.74,1.6-5.27,0a4.05,4.05,0,0,0-3.42-1.16c-9.23,0-18.46,0-27.69-.05,0-.14,0-.28,0-.42,9.31,0,18.63-.09,27.95-.1,1.12,0,2.24.2,2.9-1a.68.68,0,0,1,.18-.2,4.19,4.19,0,0,1,5.35.23A1.7,1.7,0,0,1,201.24,500.81Z" transform="translate(-10.05 -14.53)"/><path class="cls-2" d="M485.07,77.14c-4,2.84-8.76,1.62-11.75-2.67a1.62,1.62,0,0,0-1.64-.66c-1.65,0-3.31,0-5,0-8.24,3.36-16.18,7.53-24.78,10-.12-.29-.23-.59-.35-.88,2.53-1,5.07-2.06,7.59-3.13,5.23-2.22,10.44-4.47,15.67-6.66a8.83,8.83,0,0,1,1.87-.35c.92-.08,1.83-.2,2.74-.23,1.85-.07,3.3,0,4.74-2.07,2.55-3.64,9.45-3.21,12.23,0C489,73.45,487.69,75.28,485.07,77.14Z" transform="translate(-10.05 -14.53)"/><path class="cls-5" d="M96.22,351.48c3.2,2.83,5.4,6.49,8,9.76,3,3.77,6,7.64,9.09,11.4-.65.32-.87,1.29-1.79,1.18-.83-3.31-3.6-5.32-5.43-7.95-3.2-4.6-7.13-8.66-10.12-13.42C96.09,352.13,96.16,351.8,96.22,351.48Z" transform="translate(-10.05 -14.53)"/><path class="cls-5" d="M96.06,215.84c2.29-3.71,5.25-6.9,7.89-10.34,2.43-3.16,4.92-6.28,7.35-9.44a3.55,3.55,0,0,0,.32-1.31c.87-.1,1.06.8,1.64,1.12q-7.86,10-15.74,20.06c-.26.34-.78.47-1.18.7C96.25,216.36,96.15,216.1,96.06,215.84Z" transform="translate(-10.05 -14.53)"/><path class="cls-11" d="M102.59,75.65a1,1,0,0,0,.63-.9L123.52,83c.55.23,1,.64.78,1.27-.27.87-1,.36-1.34.2C116.16,81.57,109.38,78.6,102.59,75.65Z" transform="translate(-10.05 -14.53)"/><path class="cls-10" d="M83.06,418.47c2.13,1.59,2.49,3.77,2.42,6.29-.17,6.15-.14,12.29-.19,18.44l-1.36,0c0-6.17-.11-12.34-.06-18.52a11,11,0,0,0-1.2-5.83Z" transform="translate(-10.05 -14.53)"/><path class="cls-11" d="M98.28,495.61l.47-1.29c6.76-3.1,13.59-6,20.59-8.56l0,1.21q-9.75,4.2-19.49,8.39A7,7,0,0,1,98.28,495.61Z" transform="translate(-10.05 -14.53)"/><path class="cls-2" d="M103.54,478.56a2.83,2.83,0,0,1-3.05,1.3c-.72-.14-1.45-.23-2.17-.35-9.11,3.88-18,8.2-27.45,11.34-.07.35-.3.74-.2,1,.58,1.69.27,2.92-1.67,3.2s-3.28-.21-3.17-2.53a2.48,2.48,0,0,0-.24-.76,58.35,58.35,0,0,1-9-3.83c-1.18,0-2.21.82-3.45.54s-2.14-.56-2.13-2c0-1.28.9-1.69,1.94-1.87,2.08-.36,3.51.36,4,2.56l8.66,3.76c1.47.88,2.88-.15,4.32-.15,6-3.22,12.53-5.39,18.73-8.25,3.14-1.45,6.38-2.67,9.57-4a2.22,2.22,0,0,1,1.79-2.4c1.26-.35,2.39-.39,3.17.82C103.46,477.4,104.22,477.7,103.54,478.56Z" transform="translate(-10.05 -14.53)"/><path class="cls-5" d="M46.68,75V73.9c8.89,1.47,16.31-2.79,24-6.07,1.74-.74,3.36-2,5.42-1.69v.58c-5,2.17-10.17,4.15-15.09,6.56C56.36,75.55,51.5,74.83,46.68,75Z" transform="translate(-10.05 -14.53)"/><path class="cls-14" d="M70.57,77.17l27.7,11.74-.16.75C88.8,86,79.57,82.15,70.5,78Z" transform="translate(-10.05 -14.53)"/><path class="cls-5" d="M518.3,73.86V75c-8.34,1.19-15.62-2.12-22.9-5.41-2.16-1-4.33-1.93-6.49-2.89v-.57c4.2.68,8,2.66,11.63,4.55A31.89,31.89,0,0,0,518.3,73.86Z" transform="translate(-10.05 -14.53)"/><path class="cls-6" d="M101,401.65c0-.33.07-.65.1-1,1.46.19,1.31,1.39,1.35,2.34.09,1.75,0,3.51,0,5.26,0,1.11-.07,2.19,1.18,2.85a1.34,1.34,0,0,1,.23,2.45,3.22,3.22,0,0,1-4.52-.09c-.93-.85-.87-1.79.38-2.39s1.28-1.63,1.25-2.8C100.94,406.08,101,403.86,101,401.65Z" transform="translate(-10.05 -14.53)"/><path class="cls-7" d="M401.82,49.55c-2.14,1-4.45,1.64-5.87,3.78a2.8,2.8,0,0,1-2.74,1c-1.54-.1-2.74-.84-2.68-2.48a2.1,2.1,0,0,1,2.62-2.17c3.18,1,5.86-.3,8.64-1.3Z" transform="translate(-10.05 -14.53)"/><path class="cls-1" d="M427.31,81v.61c-2.37.59-4.78.16-7.17.28s-4.62-.44-6.62,1.16a2.55,2.55,0,0,1-1.07.24,3.26,3.26,0,0,1-3.17-1.26,1.06,1.06,0,0,1,.17-1.5c1-.78,2.18-1.64,3.28-1C417.41,82.36,422.45,80.67,427.31,81Z" transform="translate(-10.05 -14.53)"/><path class="cls-7" d="M102.14,167l-1.25,0c0-2.49,0-5,.1-7.46a2.27,2.27,0,0,0-1-2.14,1,1,0,0,0-1.1-.93c-.41-1.91,1.21-2.06,2.31-2.46s2.13.42,3,1.08c.55.41.59,1.47.07,1.73-2.74,1.34-1.58,3.78-1.77,5.82C102.36,164.1,102.61,165.6,102.14,167Z" transform="translate(-10.05 -14.53)"/><path class="cls-9" d="M163.73,518.48c1.77-.85,3.71-1.44,4.9-3.2a2.6,2.6,0,0,1,2.39-1.13c1.71.05,3.29.37,3.23,2.5a2.32,2.32,0,0,1-3.16,2.15c-2.79-1.26-4.94.25-7.33.86Z" transform="translate(-10.05 -14.53)"/><path class="cls-2" d="M66.15,212.05c-1.51-.35-2.12-1-2.18-2.21C65.36,209.79,65.78,210.64,66.15,212.05Z" transform="translate(-10.05 -14.53)"/><path class="cls-2" d="M64.25,209.09c-2.27-.68-3.12-1.67-3.14-3.76-.06-6,0-12,0-18,0-2.28,1.79-3.5,3-5l.4.36c-3.94,4.89-2.28,10.66-2.43,16.11C62,202.21,61,205.92,64.25,209.09Z" transform="translate(-10.05 -14.53)"/><path class="cls-2" d="M76.92,221.56c.09,1.11-.61,1.8-1.81,2-1.6.25-2.9,0-3.46-1.72-.1-.3.11-.7.18-1.05l-3.19-4.7c-.88-1.07-2.22-1.82-2.62-3.68,2.1.43,2.36,2,3,3.33,1.64.78,2.4,2.32,3.26,3.77a15.15,15.15,0,0,0,1.89.2C75.5,219.68,76.79,219.9,76.92,221.56Z" transform="translate(-10.05 -14.53)"/><path class="cls-2" d="M57.73,362a3.68,3.68,0,0,0-.42,2.41c0,12.38.06,24.76-.09,37.14,0,2.31,1.52,3.48,2.58,4.94,3.19,4.4,6.71,8.55,9.94,12.91a9.18,9.18,0,0,1,2.14,5.8c-.14,8.59.36,17.21-.2,25.77-.49,7.36-.31,14.71-.54,22.06,0,1.5,0,2.88,1.22,4,1,1,.88,1.95-.23,2.92a3,3,0,0,1-4.22.17,1.78,1.78,0,0,1-.31-2.86c1.4-1.26,1.22-2.78,1.23-4.34q.06-24.37.15-48.77a5.37,5.37,0,0,0-1-3.38c-3.89-5.13-7.72-10.3-11.76-15.31A5.11,5.11,0,0,1,55,402q0-19,0-38a5.85,5.85,0,0,1,1.49-3.94c4.13-5.18,8-10.59,12-15.87,3.82-5.06,7.66-10.1,11.62-15.05a5.25,5.25,0,0,0,1.22-3.51V242.77a5.56,5.56,0,0,0-1.46-3.66c-4.76-6.06-9.28-12.31-14-18.46-3.27-4.32-6.62-8.59-10-12.85a4.73,4.73,0,0,1-.9-3.11c0-12.75.09-25.5-.06-38.24,0-2.53,1.65-3.84,2.81-5.45,3.18-4.41,6.64-8.6,10-12.89A6.37,6.37,0,0,0,69,144c0-8.22,0-16.44,0-24.66h-.13c0-8.13,0-16.26,0-24.39,0-1.31,0-2.59-1.13-3.5a1.55,1.55,0,0,1-.08-2.58c1.32-1.34,2.93-1.15,4.42-.35a1.73,1.73,0,0,1,.5,2.65c-2,2-1.29,4.46-1.38,6.78-.42,11.15,1,22.26.67,33.41a49.44,49.44,0,0,0,.07,8.86c.74,5-1.81,8.51-4.66,12.06-3.23,4-6.35,8.14-9.49,12.24a4.14,4.14,0,0,0-.47,2.68c0,12.29.1,24.58-.07,36.86,0,2.35,1.44,3.56,2.54,5,5.44,6.9,10.37,14.18,16,20.92,2.49,3,4.65,6.25,7.07,9.31a4.48,4.48,0,0,1,.79,2.88v59.84c0,6.92-.16,13.86.08,20.77a13.43,13.43,0,0,1-3.11,9.56c-5.47,6.75-10.75,13.67-16.07,20.54C62.23,355.82,60,358.9,57.73,362Z" transform="translate(-10.05 -14.53)"/><path class="cls-7" d="M57.79,419.84a1.8,1.8,0,0,1,1.27,1.25,3.93,3.93,0,0,0,3.37,2.72,2,2,0,0,1,1.9,2.27,2.14,2.14,0,0,1-2.12,2.11,4.32,4.32,0,0,1-3.52-1c-1.53-1.21-.33-1.86.05-2.88.64-1.66-1.64-2.19-1.71-3.67Z" transform="translate(-10.05 -14.53)"/><path class="cls-11" d="M149.15,43.53c.31-.4.62-.81.94-1.21,5.18,3,10.92,4.78,16.32,7.31a6.92,6.92,0,0,1,.68.42l0,1.16A130.58,130.58,0,0,1,149.15,43.53Z" transform="translate(-10.05 -14.53)"/><path class="cls-6" d="M167.07,51.21l0-1.16a4.72,4.72,0,0,0,2.67-.24c1.51-.49,3.14-.61,4.19,1a1.85,1.85,0,0,1-.43,2.71,3.65,3.65,0,0,1-4.8-.17A20.5,20.5,0,0,1,167.07,51.21Z" transform="translate(-10.05 -14.53)"/><path class="cls-9" d="M85.24,125.39l-1.28,0a3.4,3.4,0,0,0-.74-.77c-1-.55-2.25-1-1.92-2.54s1.7-1.82,2.91-2a3,3,0,0,1,3.3,1.4C88.77,123.85,86.15,124.17,85.24,125.39Z" transform="translate(-10.05 -14.53)"/><path class="cls-7" d="M480.58,124.9l-1.13,0a3.12,3.12,0,0,1-2.78-2.61c-.05-.8,1.07-1.82,2.26-2.14,1.71-.45,3.5,0,4.22,1.29C484.55,124,482,124.13,480.58,124.9Z" transform="translate(-10.05 -14.53)"/><path class="cls-4" d="M482.34,447.63a4.26,4.26,0,0,1-4.18.24c-.79-.38-1.62-1.34-1.35-2.14a2.79,2.79,0,0,1,2.58-2.13l1.26,0c1.2.36,2.6.51,2.86,2.08C483.67,446.63,483.17,447.16,482.34,447.63Z" transform="translate(-10.05 -14.53)"/><path class="cls-4" d="M83.93,443.16l1.36,0c.12.14.21.34.36.41,1.37.69,2.86,1.49,1.86,3.27s-2.68,1.79-4.35,1.14c-.8-.3-1.75-.62-1.88-1.78s.62-1.77,1.59-2.23A5.65,5.65,0,0,0,83.93,443.16Z" transform="translate(-10.05 -14.53)"/><path class="cls-2" d="M142.17,59.65c3.59.69,6.77,2.31,10.47,4-2.08.51-3.15-.61-4.39-1.06-1.56-.57-1.79.06-1.67,1.35,1.19.45,2.62.91,2.56,2.37,0,1-1.21,1.47-2.25,1.63-1.3.2-2.64.31-3.24-1.19s.55-2.27,1.79-2.79C146.19,61.09,143.57,60.91,142.17,59.65Z" transform="translate(-10.05 -14.53)"/><path class="cls-2" d="M141.56,59.2c-.85.63-1.51,0-2.21-.34-2.4-.17-4.84.48-7.2-.38a.83.83,0,0,1-.1-.51c2.45,0,4.91-.57,7.32.29C140.18,58.37,141.05,58.32,141.56,59.2Z" transform="translate(-10.05 -14.53)"/><path class="cls-2" d="M201,70.55c-2,1.46-3.89,1.15-5.65-1l-28.7-.1c-1.28,0-2.59.13-3.67-.81a26.41,26.41,0,0,1-6.6-2.83l.31-.36a23.3,23.3,0,0,1,6.63,2.79c10.7.51,21.4.38,32.1.08a1.65,1.65,0,0,1,.27-.47c1.88-1.54,4.52-1.67,5.69-.17A1.79,1.79,0,0,1,201,70.55Z" transform="translate(-10.05 -14.53)"/><path class="cls-11" d="M163.76,519.66c-4.22,2.52-9,3.78-13.33,6.06a1.28,1.28,0,0,0-.67-1.18,138.28,138.28,0,0,1,14-6.06Z" transform="translate(-10.05 -14.53)"/><path class="cls-14" d="M401.82,49.55l0-1.2c4.06-2.37,8.51-3.85,12.89-5.47l1.11.62C411.37,46.05,406.55,47.7,401.82,49.55Z" transform="translate(-10.05 -14.53)"/><path class="cls-6" d="M132.05,58a.83.83,0,0,0,.1.51l-2.81,0,0-.66c.36-.81-.36-1.09-.74-1.56-.57-.73-1.89-1.25-.38-2.49a3.13,3.13,0,0,1,4.19-.32c1.2.86.91,2-.05,3.05C132.08,56.86,130.31,57.09,132.05,58Z" transform="translate(-10.05 -14.53)"/><path class="cls-2" d="M498.32,179.34c.43.65,1.14,1.1.91,2.51-2-2.13-4.09-3.76-4.77-6.49-1.22-.38-.92-1.39-.93-2.26a35.94,35.94,0,0,1,0-5.19c.38-2.86-1.76-4.41-3-6.45-1.72-.23-3.26-.39-4.9.87-1.21.93-3,.63-4.16-.86-.48-.59-.73-.82,0-1.49,1.38-1.36,2.95-1.73,4.45-.66,1,.68,1.73,1.28,2.93,1-1.68-4-4.78-7-7.51-10.26a7,7,0,0,1-1.9-4.91c0-6.75,0-13.49,0-20.24l1.13,0c0,6.92-.1,13.84-.06,20.76,0,3.17,3.05,4.56,4.48,6.92s3.78,4.32,5.05,6.94l.62.78c4.1,2.71,4.59,6.81,4.32,11.2.63.08,1.28.25,1.84-.24.27-.24.5-.61.82-.71,1.53-.48,3-.68,4.2.83.87,1,0,1.64-.44,2a2.91,2.91,0,0,1-4,.16c-.81-.63-1.42-1.56-2.49-.46C494.62,176,497,177.35,498.32,179.34Z" transform="translate(-10.05 -14.53)"/><path class="cls-2" d="M502.87,207.66c-.16.9-1.11,1.06-1.57,1.68l-.41-.36c.38-.94.69-1.92,1.85-2.2q0-10.17.1-20.35c-1.23-1.3-2.73-2.41-3.53-4.79,2.26,1.36,3.65,2.68,4.16,4.77.9,4.93.25,9.91.36,14.86C503.87,203.41,504.52,205.73,502.87,207.66Z" transform="translate(-10.05 -14.53)"/><path class="cls-2" d="M501.3,209.34c-.05,1-1,1.24-1.61,1.76-1.79,3.45-4.5,6.19-6.93,9.16.2.92.39,1.85.59,2.77a22,22,0,0,1-2.75.56c-1.41.13-2.66-.31-2.68-1.94s1.09-2,2.42-2l1.91,0a50.78,50.78,0,0,1,7.09-9c.26-.81.45-1.69,1.55-1.75Z" transform="translate(-10.05 -14.53)"/><path class="cls-9" d="M497.75,509.26c.39-.86,1.45-.79,1.32-2-.22-1.92,1.32-2.19,2.72-2.3a2.23,2.23,0,0,1,2.6,2.2c0,1.24-1.12,1.83-2.3,1.81A12.51,12.51,0,0,0,497.75,509.26Z" transform="translate(-10.05 -14.53)"/><path class="cls-11" d="M399.58,32.32c0-.37,0-.75,0-1.13,3.93,1.55,8,2.89,11.64,5l0,1.16C407.25,35.87,403.2,34.6,399.58,32.32Z" transform="translate(-10.05 -14.53)"/><path class="cls-2" d="M155.62,486.82c0,1.39-1.42,2.18-2.93,2.19-1.35,0-2.29-.95-3.32-1.65H138.26c0-.29,0-.57,0-.85h11.13a6.81,6.81,0,0,1,3.36-1.64C154.19,484.79,155.57,485.81,155.62,486.82Z" transform="translate(-10.05 -14.53)"/><path class="cls-2" d="M138,487.05c-2.11,1.77-4.52,2.28-6.67,3.21-8.86,3.81-17.75,7.54-26.63,11.3a10.52,10.52,0,0,1-4.27.95c-7.68,0-15.35-.06-23,0a13.94,13.94,0,0,1-5.79-1.58c-5-2.17-9.95-4.28-14.93-6.42,0-.27,0-.55,0-.83,5.34,2.2,10.7,4.36,16,6.61a13.77,13.77,0,0,0,5.62,1.2c4.43-.07,8.89-.28,13.31,0a38.68,38.68,0,0,0,19.74-3.9c7.72-3.64,15.7-6.73,23.57-10.06A4.35,4.35,0,0,1,138,487.05Z" transform="translate(-10.05 -14.53)"/><path class="cls-2" d="M513.73,486.9a3.16,3.16,0,0,1-2.43,1.58,15.77,15.77,0,0,1-2.93-.56L499,492.07c.33,2.12-.87,3.11-2.73,3-1.43-.05-3.26-.26-2.77-2.6.26-1.5-.85-1.78-1.89-2.22-8.31-3.54-16.61-7.12-24.92-10.68-1.44-.36-2.83.79-4.31.1-.78-.36-1.55-.59-1.62-1.61s.63-1.57,1.57-1.91c2.16-.77,3.73.1,4.36,2.49l27.81,11.83a8.32,8.32,0,0,0,4.38.64c2.84-2,6.44-2.45,9.27-4.46,1-2.52,3.69-3,5.32-1C513.8,486.05,514,486.54,513.73,486.9Z" transform="translate(-10.05 -14.53)"/><path class="cls-3" d="M96.06,215.84c.09.26.19.52.28.79a5,5,0,0,0-.23,3.07l-.69.06c-.82,0-1.66,0-2.47-.17-1.28-.22-2.84-.48-2.59-2.16.21-1.43,1.7-1.78,3-1.79C94.26,215.64,95.12,216.25,96.06,215.84Z" transform="translate(-10.05 -14.53)"/><path class="cls-10" d="M163.71,31.71l0,1.19A67.33,67.33,0,0,1,152.17,38L152,36.77A71.84,71.84,0,0,1,163.71,31.71Z" transform="translate(-10.05 -14.53)"/><path class="cls-1" d="M464,158.18l-1.67,0c-1.13-.46-2.24-1-2-2.49.19-1.25,1.27-1.38,2.24-1.65a2.86,2.86,0,0,1,3.29,1.4C466.76,157,464.6,157.23,464,158.18Z" transform="translate(-10.05 -14.53)"/><path class="cls-2" d="M513.71,82c0,1.53-1.64,2-3.1,1.92a2.94,2.94,0,0,1-2.86-2.72c-3-1.23-6.12-2.12-8.85-3.92a8.09,8.09,0,0,0-4.42.62L470.37,88.29c-1.26.54-2.51,1.1-3.76,1.65.12,1.48-.83,2.07-2,2.47a3.37,3.37,0,0,1-3.48-.9,1.34,1.34,0,0,1-.14-1.77,3.17,3.17,0,0,1,3.35-1.22c.62.1,1.23.32,1.84.48,8.49-3.65,17-7.32,25.47-10.91,1.25-.52,2.15-1,1.8-2.54.34-2,1.72-2.43,3.39-2.18A2.45,2.45,0,0,1,499,76.49c2.9,1.35,6,2.13,8.76,3.89,1.05.3,1.94-.44,2.92-.45C512.19,79.92,513.74,80.46,513.71,82Z" transform="translate(-10.05 -14.53)"/><path class="cls-9" d="M66.06,59.47c-.11,2.38-.78,4.09-3.34,3.89-1.2-.1-2.6-.48-2.65-1.89s1.33-1.83,2.53-2A30.29,30.29,0,0,1,66.06,59.47Z" transform="translate(-10.05 -14.53)"/><path class="cls-9" d="M462.41,409.9h1.45c.16.22.34.43.49.66.54.86,2.6,1.13,1.38,2.65a3.51,3.51,0,0,1-4.48.82C459.61,413.2,460.08,411.66,462.41,409.9Z" transform="translate(-10.05 -14.53)"/><path class="cls-2" d="M471.72,219.67a11.07,11.07,0,0,1-2.16.08,14.48,14.48,0,0,1-3.51,4.86c-1.83,1.89-2.14,3.87-2.14,6.23,0,11.45,0,22.9-.06,34.36,2.59,2.38,2.73,3,.63,4-1.34.63-3,.86-3.86-.7s.46-2.57,1.73-3.33q0-18.19-.12-36.38c0-1.54.9-2.43,1.78-3.52,1.53-1.88,2.72-4,4.65-5.61a3.85,3.85,0,0,0,.06-2.53c-2.84-2.29-4.56-5.53-6.9-8.25-3.59-4.15-6.78-8.65-10.13-13a6.61,6.61,0,0,1-1.09-.12c-1.17-.34-2.79-.44-2.7-2.07s1.58-2.06,2.78-2,3.14.19,2.74,2.45c-.36,1.74.66,2.87,1.65,4.12,4.66,5.85,9.24,11.75,13.85,17.64.81-.09,1.61-.23,2.42-.26,1.26-.05,2.43.22,2.59,1.74S472.88,219.41,471.72,219.67Z" transform="translate(-10.05 -14.53)"/><path class="cls-1" d="M98.11,89.66l.16-.75c1.56.17,3.13-1.2,4.73.17,1.15,1,1.18,1.73,0,2.69C101.13,93.41,98.86,92.46,98.11,89.66Z" transform="translate(-10.05 -14.53)"/><path class="cls-4" d="M63.3,509.09c-1.52-.2-3.11-.48-3.11-1.85a2.37,2.37,0,0,1,2.89-2.2c1.26.21,2.69.49,2.73,2.42C65.86,509.91,63.8,508.21,63.3,509.09Z" transform="translate(-10.05 -14.53)"/><path class="cls-6" d="M57.2,81.08a3.35,3.35,0,0,1-4,2.76c-1.14-.14-2.17-.51-2.15-2s1-1.71,2.17-1.93c1.37-.26,2.61,1,4,.25C57.21,80.49,57.2,80.78,57.2,81.08Z" transform="translate(-10.05 -14.53)"/><path class="cls-9" d="M148.23,81.7c0-.17,0-.33,0-.5a4.34,4.34,0,0,0,2.4-1.07,3.19,3.19,0,0,1,4.47.45c.67.71.75.94,0,1.7a3.38,3.38,0,0,1-4.5.52A5.34,5.34,0,0,0,148.23,81.7Z" transform="translate(-10.05 -14.53)"/><path class="cls-2" d="M490.12,507.49h0c-.29.62-1.07.74-1.2,1.66-.29,2.06-1.93,1.79-3.43,1.56a1.64,1.64,0,0,1-1.54-2.15c.42-1.82,2-1.59,3.35-1.56a24.74,24.74,0,0,1,2.7.29v.14Z" transform="translate(-10.05 -14.53)"/><path class="cls-2" d="M506.86,501l-3.29.9C504.31,500.72,505.21,500.2,506.86,501Z" transform="translate(-10.05 -14.53)"/><path class="cls-2" d="M497.89,503.91c1.47-1,2.93-2,5.28-2A10,10,0,0,1,497.89,503.91Z" transform="translate(-10.05 -14.53)"/><path class="cls-2" d="M513.8,501.86c-2.27,1.65-4.09.44-5.88-1.2,1.86-1.62,3.74-3.12,6-1A1.43,1.43,0,0,1,513.8,501.86Z" transform="translate(-10.05 -14.53)"/><path class="cls-8" d="M113.26,195.87c-.58-.32-.77-1.22-1.64-1.12-1.08-1.82.15-2.4,1.55-2.88,1.67-.58,2.85.3,3.74,1.47.62.82-.44,1.16-.88,1.66C115.26,195.85,114.24,195.77,113.26,195.87Z" transform="translate(-10.05 -14.53)"/><path class="cls-3" d="M96.22,351.48c-.06.32-.13.65-.2,1a15.8,15.8,0,0,1-3.48.21c-1-.16-2.29-.42-2.27-1.89,0-1.29,1.18-1.55,2.08-1.8a15.54,15.54,0,0,1,3-.23l.68.14Z" transform="translate(-10.05 -14.53)"/><path class="cls-9" d="M72.66,212.57l-.82,0c-1.31-.08-2.58-.29-3.07-1.73-.42-1.22.67-1.52,1.42-2,1.43-.84,2.73-.26,3.78.64,1.35,1.17-.12,2.05-.57,3Z" transform="translate(-10.05 -14.53)"/><path class="cls-2" d="M495.52,358.15c-.2,1.68-1.55,1.86-2.93,1.74s-2.47-.83-2.15-2.49a3.39,3.39,0,0,0,.2-1.86c-3.62-3.59-6.32-7.93-9.61-11.79-.54-.65-.32-1.39-.38-2.11-.74-.69-2.19-1.12-1.84-2.26a2.52,2.52,0,0,1,2.23-1.74c1.25,0,2.69-.18,3.24,1.37.62,1.74-1,2.05-2,2.73-.34,2.31,1.58,3.46,2.63,5.05,1.95,3,5,5.23,6.21,8.73a16,16,0,0,0,2.14.46C494.69,356.09,495.71,356.64,495.52,358.15Z" transform="translate(-10.05 -14.53)"/><path class="cls-2" d="M78.62,155.68c-.62,1.7-2.85,2.53-2.56,4.72l1.15,0c1.27-.43,2-2,3.64-1.66,1.21.26,2.5.43,2.43,2.07s-1.4,1.68-2.6,1.89c-1.49.26-2.18-1.28-3.45-1.49-4.51.43-6.63,2.82-6.66,7.47,0,2-.07,4-.11,6.06-.83-.51,0-2.27-1.64-2.16a1.6,1.6,0,0,1-.53-.09,1.3,1.3,0,0,0-.23.15c-1.46,1.69-3,2.23-4.9.57-.71-.62-1.27-1.05-.34-1.93,1.7-1.61,3.35-1.55,5,0,1.06.25,1.31-.38,1.23-1.21-.47-5,3-7.83,5.86-11,.84-1.49,1.65-3,3.29-3.82.6-2.33,2.46-3.84,3.87-5.56a6.8,6.8,0,0,0,1.78-4.69c0-6.54.06-13.08.1-19.63l1.28,0c.45,7,.12,14,.17,20.93,0,2.05-1.87,3.06-2.81,4.56A45.23,45.23,0,0,1,78.62,155.68Z" transform="translate(-10.05 -14.53)"/><path class="cls-2" d="M496.45,421.26a4.79,4.79,0,0,0-1.07,3q.06,24.79.08,49.6a3,3,0,0,0,1.22,2.81,2,2,0,0,1,.1,3.34,3.71,3.71,0,0,1-5-.29c-1.13-1-1-2,.33-2.86s.89-2.14.89-3.31c0-15.89.07-31.78-.16-47.66,0-3.07,1.15-5.24,2.76-7.45,3.48-4.75,7.47-9.1,10.86-13.93a4.83,4.83,0,0,0,1.06-3c0-12.38-.1-24.76.06-37.14,0-2.3-1.42-3.56-2.48-5-3.5-4.62-7.25-9.05-10.53-13.83-.4-.6-.91-1.07-1.7-.61.56-2.8-2.1-3.9-3.27-5.7-2.51-3.85-5.48-7.41-8.36-11a3.63,3.63,0,0,1-.58-2.59q0-41.49,0-83c0-3.48,3-5.05,4.51-7.49,2.16-3.42,4.93-6.45,7.36-9.71.5-.67,1.22-1.4.94-2.42.61.39.95,0,1.3-.45,3.89-5.23,7.72-10.5,11.74-15.62a4.32,4.32,0,0,0,1-2.95c0-12.38-.07-24.76.07-37.14,0-2.39-1.59-3.69-2.69-5.19-3.58-4.88-7.52-9.5-11.27-14.25-.86-1.09-.68-2.46-.68-3.75q0-24,.06-47.94c0-1.68.51-3.54-1.57-4.61a1.32,1.32,0,0,1-.24-1.79,3.41,3.41,0,0,1,3.24-1.65c1.19.09,2.49.12,3,1.53a2.14,2.14,0,0,1-1.08,2.82c-1,.51-.81,1.35-.81,2.14,0,16.72,0,33.44-.14,50.16,0,2.18,1.44,3.36,2.44,4.73,3.58,4.89,7.43,9.59,11.23,14.32a4.59,4.59,0,0,1,.95,3.08c0,12.65-.08,25.31.06,38,0,2.4-1.53,3.7-2.67,5.21-5.27,7-10.82,13.83-16.08,20.86-2.28,3.06-4.5,6.17-6.88,9.14a4.74,4.74,0,0,0-.79,3.16c0,27.53.06,55.06-.06,82.59,0,2.82,1.78,4.41,3.12,6.21,5.95,8,12.2,15.75,18.24,23.68,1.48,1.94,2.82,4,4.41,5.87a4.3,4.3,0,0,1,.65,2.92c0,12.56-.08,25.13.07,37.69,0,2.6-1.75,4-2.95,5.68C503.73,412.22,499.81,416.52,496.45,421.26Z" transform="translate(-10.05 -14.53)"/><path class="cls-2" d="M488,346.76c.14-3,2.76-1.7,4.53-1.64a.79.79,0,0,0,.23-.08,8.28,8.28,0,0,1,0,3.29,42.57,42.57,0,0,1,6.53,8.77,34.93,34.93,0,0,1-7-8.33C490.59,348.57,487.9,349.5,488,346.76Z" transform="translate(-10.05 -14.53)"/><path class="cls-2" d="M501.73,395.3c.92.92.22,1.52-.24,2a2.88,2.88,0,0,1-3.94.36c-.77-.48-1.34-1.26-2.4-.9a37.49,37.49,0,0,0,0,3.82c.28,3.15-1.69,4.92-3.84,6.63-2.13,4.26-5.6,7.55-8.43,11.3-1.41,1.88-2.48,3.56-2.39,6.07.23,6.34.16,12.69.21,19l-1.26,0c0-6.63.07-13.26.05-19.89a7,7,0,0,1,2-5.41,74.52,74.52,0,0,0,6.45-8.09c.44-.59,1.77-1.62-.14-2.22a3,3,0,0,0-1.79.95c-1.28,1.36-2.83.88-4.11-.23-.44-.39-1.17-.84-.35-1.75a3.31,3.31,0,0,1,4.15-.94c.72.32,1.1,1.27,2.07,1.17l3.07-.4a10.27,10.27,0,0,0,2.67-8.86c-.73-4.7,2.31-7.62,4.91-10.77.41-.49.86-.94,1.29-1.41,3.53-3.12,3.22-7.25,3.12-11.38-.1-3.64,0-7.28,0-11.23,1.43.75,1,1.68,1.05,2.39,0,4.72-.05,9.43,0,14.14a7.06,7.06,0,0,1-3.76,6.5c-.54,2.23-2.37,3.64-3.67,5.34a5.94,5.94,0,0,0-1.44,3.93,1.19,1.19,0,0,0,1.49.26c.37-.24.59-.76,1-.93C499,394.11,500.39,394,501.73,395.3Z" transform="translate(-10.05 -14.53)"/><path class="cls-2" d="M499.67,357.85a6.21,6.21,0,0,1,3.78,4.38A7.55,7.55,0,0,1,499.67,357.85Z" transform="translate(-10.05 -14.53)"/><path class="cls-9" d="M499.47,59.63c.64-.06,1.28-.1,1.91-.18,1.56-.22,3,.52,3.26,1.79s-1.22,2.08-2.59,2.13c-1.54.06-3-.18-3-2.26,0-.36,0-.73-.05-1.09Z" transform="translate(-10.05 -14.53)"/><path class="cls-2" d="M495.54,210.45a1.83,1.83,0,0,1-1.83,2c-.82.09-1.63.2-2.45.3-1.3,3.49-4.29,5.76-6.28,8.74-1.09,1.65-3.24,2.84-2.62,5.34,1.39.19,2.25.93,2,2.39s-1.56,1.51-2.8,1.58a2.75,2.75,0,0,1-2.77-1.82c-.27-.79,1-1.52,1.8-2.08-.32-3,2.36-4.3,3.69-6.32,1.92-2.89,4.35-5.45,6.56-8.15-.76-3,.09-4.18,2.78-3.85C494.78,208.71,495.51,209.28,495.54,210.45Z" transform="translate(-10.05 -14.53)"/><path class="cls-8" d="M83.26,226.37c.19.19.36.49.58.54,1.27.29,1.91,1,1.68,2.33s-1.24,1.44-2.27,1.53-2.22-.07-2.73-1.3.32-1.94,1.26-2.53c.31-.19.59-.42.88-.63Z" transform="translate(-10.05 -14.53)"/><path class="cls-2" d="M66.18,503.83c1.72,0,3.09.71,4.74,1.8C68.75,505.83,67.52,504.67,66.18,503.83Z" transform="translate(-10.05 -14.53)"/><path class="cls-2" d="M80.19,510.35c-1.16.54-2.39,1-3.62.11a5.16,5.16,0,0,1-1.72-3c-1.47.2-2.53-.71-3.65-1.49A4.36,4.36,0,0,1,75,507.4a23.17,23.17,0,0,1,3-.42c1.2,0,2.43.18,2.94,1.5A1.4,1.4,0,0,1,80.19,510.35Z" transform="translate(-10.05 -14.53)"/><path class="cls-2" d="M56.63,500.33a2.56,2.56,0,0,0,0,.39c-1,.66-1.81,1.86-3.21,1.9-1,0-2,0-2.64-1a1.83,1.83,0,0,1,.1-2.06c.59-.87,1.5-.85,2.43-.9C54.8,498.56,55.4,500,56.63,500.33Z" transform="translate(-10.05 -14.53)"/><path class="cls-3" d="M492.81,345h0v0Z" transform="translate(-10.05 -14.53)"/><path class="cls-3" d="M76.93,346.91a1.64,1.64,0,0,1-1.49,1.67c-.9.1-1.8.12-2.7.18l-1-1c-.08-2.49,1.29-3.5,3.64-2.82A1.79,1.79,0,0,1,76.93,346.91Z" transform="translate(-10.05 -14.53)"/><path class="cls-6" d="M111.57,373.82c.92.11,1.14-.86,1.79-1.18l.82.06c1.43.06,2.81.9,2.7,2.1-.13,1.4-1.7,2.16-3.18,1.8C112.41,376.29,110.52,376.08,111.57,373.82Z" transform="translate(-10.05 -14.53)"/><path class="cls-2" d="M80.77,60.29a3.11,3.11,0,0,1-3.1,1.22,6.92,6.92,0,0,1-1.54-.5l-2.56.77c1.5-.65,1.07-2.78,2.57-3.3a5,5,0,0,1,1-.82,3.23,3.23,0,0,1,3.47.86A1.35,1.35,0,0,1,80.77,60.29Z" transform="translate(-10.05 -14.53)"/><path class="cls-4" d="M493.38,223l0,0v0Z" transform="translate(-10.05 -14.53)"/><path class="cls-9" d="M55.6,67.16v1.28a2,2,0,0,1-1.42,1.13c-1.25.37-2.38.48-3.26-.65a1.79,1.79,0,0,1,0-2.31c.88-1.07,2-1,3.27-.6A2,2,0,0,1,55.6,67.16Z" transform="translate(-10.05 -14.53)"/><path class="cls-6" d="M74.32,357.25c.58,1.85-.92,2.2-2.06,2.6a2.91,2.91,0,0,1-3.21-1c-.59-.72-.46-1.65.63-2.27a7.17,7.17,0,0,1,2.91-.66C73.29,356.19,73.34,357.32,74.32,357.25Z" transform="translate(-10.05 -14.53)"/><path class="cls-7" d="M82.77,343.34a1.91,1.91,0,0,0-1.16-1.92c-1.29-.79-1.76-2.13-.47-3.18a2.83,2.83,0,0,1,4,.23c.88,1,.75,2.27-.83,2.81-1,.35-.9,1.26-1,2.05A1.74,1.74,0,0,1,82.77,343.34Z" transform="translate(-10.05 -14.53)"/><path class="cls-2" d="M490,60.57c.08.83-.63.56-1.11.49a3.55,3.55,0,0,0-.8.16,3.14,3.14,0,0,1-3.9-.84,1.44,1.44,0,0,1,.31-2.18c1.46-.89,3-1.3,4.33.38C490.18,58.65,489.9,59.8,490,60.57Z" transform="translate(-10.05 -14.53)"/><path class="cls-2" d="M513.91,68.89a3.26,3.26,0,0,1-3.52.74,13.14,13.14,0,0,1-2-1.37c-4.8.07-8.52-2.92-12.72-4.57,4.48.34,8.08,3.76,12.69,3.6a12.29,12.29,0,0,1,2.29-1.43,3.11,3.11,0,0,1,3.42,1A1.36,1.36,0,0,1,513.91,68.89Z" transform="translate(-10.05 -14.53)"/><path class="cls-2" d="M473.87,351.08c-.33,2.16-2.14,1.8-3.72,1.4a9.87,9.87,0,0,0-1.09-.16l-9.58,12.11c-1.8,2.27-3.57,4.55-5.36,6.83a3.52,3.52,0,0,0-.66,3.11c.2,1.82-1.26,2-2.43,2.26a3,3,0,0,1-2.9-1.11,1.29,1.29,0,0,1,.38-2.07,5.71,5.71,0,0,1,3.08-.86c4-5,7.91-10.14,12-15.13,1.58-1.94,2.67-4.32,4.89-5.71a5.09,5.09,0,0,0,.35-2.83c-3.54-3.85-7-7.39-6.69-13.52.52-10.82.15-21.68.16-32.52a2,2,0,0,1-1.81-2.51c.19-1.36,1.29-1.36,2.24-1.55a2.86,2.86,0,0,1,3.2,1.55c.67,1.49-1.29,1.63-1.9,2.52,0,12.17,0,24.34-.07,36.51,0,3,2.51,4.51,3.92,6.67a20,20,0,0,1,1.76,2.74l1.1,0C472.28,348.88,474.22,348.77,473.87,351.08Z" transform="translate(-10.05 -14.53)"/><path class="cls-4" d="M70.57,77.17,70.5,78a9.41,9.41,0,0,0-4.41-.77l-.24-.77c-.23-2.17.6-3.31,2.93-3.06C71.49,73.65,71,75.43,70.57,77.17Z" transform="translate(-10.05 -14.53)"/><path class="cls-11" d="M57.79,419.84c-.25.28-.51.56-.76.85-2.28-1.72-3.66-4.19-5.38-6.37a1.35,1.35,0,0,0,1.3-.82C54.52,415.65,57,417.12,57.79,419.84Z" transform="translate(-10.05 -14.53)"/><path class="cls-2" d="M117.79,54.31c-1.28.79-1.85.33-2.39-.29a2.8,2.8,0,0,1-2.3-1c-.53-.24-1.23,0-1.64-.6l-27.61-.15c0-.16,0-.31,0-.46l26.3-.1a1.73,1.73,0,0,1,1.52.46c.64-.07,1.25-.06,1.63.59a2.87,2.87,0,0,1,2.33,1Z" transform="translate(-10.05 -14.53)"/><path class="cls-10" d="M70.46,174.77a19,19,0,0,1-5.93,7.9l-.4-.36a46.8,46.8,0,0,1,3-4.05c1.52-1.66,2.3-3.42,1.67-5.65C70.45,172.5,69.63,174.26,70.46,174.77Z" transform="translate(-10.05 -14.53)"/><path class="cls-13" d="M488.9,66.17v.57l-26.07,0v-.56Z" transform="translate(-10.05 -14.53)"/><path class="cls-13" d="M76.09,66.72v-.58l25,0v.58Z" transform="translate(-10.05 -14.53)"/><path class="cls-5" d="M95.42,219.76l.69-.06c2.5,2,4,4.82,6,7.24l-1.42,0C98.88,224.6,96.47,222.67,95.42,219.76Z" transform="translate(-10.05 -14.53)"/><path class="cls-2" d="M73.18,61.87c-1.73,1.08-3.1,1.87-4.8,1.73C69.75,62.76,71,61.66,73.18,61.87Z" transform="translate(-10.05 -14.53)"/><path class="cls-2" d="M67.76,64.21C63.83,66,60.18,68.49,55.6,68.44V67.16c3,.74,5.5-.84,8.09-1.91C65,64.72,66.19,63.82,67.76,64.21Z" transform="translate(-10.05 -14.53)"/><path class="cls-15" d="M449.79,149.61l-.21.2.2-.21Z" transform="translate(-10.05 -14.53)"/><path class="cls-10" d="M96,348.88l-.68-.14c1.2-3.07,3.8-5.14,5.62-7.77.07.36.15.73.23,1.1A20.3,20.3,0,0,1,96,348.88Z" transform="translate(-10.05 -14.53)"/><path class="cls-2" d="M426.22,486.52v.89l-11.11,0c-1.62,1.73-3.34,2.39-5.4.63-.82-.7-.84-1.3-.1-2,1.79-1.7,3.54-1.42,5.27.13a3.33,3.33,0,0,0,.73.37Z" transform="translate(-10.05 -14.53)"/><path class="cls-10" d="M72.66,212.57l.74-.09c2.81,1.32,3.47,4.39,5.35,6.48C76.11,217.39,74.61,214.77,72.66,212.57Z" transform="translate(-10.05 -14.53)"/><path class="cls-10" d="M65.85,76.41l.24.77a52.11,52.11,0,0,1-8.89,3.9c0-.3,0-.59,0-.88Z" transform="translate(-10.05 -14.53)"/><path class="cls-2" d="M82.76,408.9a3.27,3.27,0,0,1-3.57.47c-.71-.38-1-1.33-2-1.36-.84.21-1.57.44-.85,1.55a15.66,15.66,0,0,1,.91,1.89l-.4.35c-1.91-2.17-4-4.22-5.67-6.55-1.24-1.71-2.63-3.52-2.21-6a2.73,2.73,0,0,0-.58-2.58l-.21.18c-1.71,1.42-3.41,2.17-5.29.21-.61-.63-.92-1.11-.13-1.77,2-1.7,3.85-1.27,5.55.5,1.33-1.75.59-3.33-.53-4.76-1.78-2.28-3.72-4.45-5.48-6.74A5.67,5.67,0,0,1,61,380.75c.05-5.81,0-11.62,0-17.43a5.69,5.69,0,0,1,1.36-3.54c3.09-4,6.23-8,9.35-12l1,1c-3.17,4.09-6.26,8.23-9.55,12.22a4.6,4.6,0,0,0-1.11,3.22c0,4.62.26,9.25-.07,13.84-.22,3.07,1,5.26,2.77,7.4s3.47,4.21,5.18,6.33a2.32,2.32,0,0,1,.5,2.08c0,2.74,0,5.48,0,8.22,1.68,2.45,2.86,5.55,6.75,5.09,1,0,1.39-1.13,2.3-1.35a3.18,3.18,0,0,1,3.48.88A1.47,1.47,0,0,1,82.76,408.9Z" transform="translate(-10.05 -14.53)"/><path class="cls-10" d="M83.06,418.47l-.39.34c-2.52-1.85-4-4.59-5.79-7l.4-.35C79.77,413.33,81.26,416,83.06,418.47Z" transform="translate(-10.05 -14.53)"/><path class="cls-15" d="M449.79,149.61l-.21.2.2-.21Z" transform="translate(-10.05 -14.53)"/><path class="cls-10" d="M65.35,503.6l-8.69-2.88a2.56,2.56,0,0,1,0-.39C60,499.91,62.62,502,65.35,503.6Z" transform="translate(-10.05 -14.53)"/><path class="cls-12" d="M124.67,484.59c-1.56,1.25-3.54,1.56-5.29,2.38,0-.4,0-.8,0-1.21a12.74,12.74,0,0,1,4.64-2Z" transform="translate(-10.05 -14.53)"/><path class="cls-15" d="M82.77,343.34a1.74,1.74,0,0,0,.51,0c-.4,2.32-2,3.75-3.73,5.13l-.42-.4C80.44,346.56,80.94,344.44,82.77,343.34Z" transform="translate(-10.05 -14.53)"/><path class="cls-11" d="M412.35,531.88a6.72,6.72,0,0,1-3.24,1.27l-.75-.81a7.76,7.76,0,0,1,4-1.61C412.34,531.11,412.35,531.5,412.35,531.88Z" transform="translate(-10.05 -14.53)"/><path class="cls-2" d="M408.42,502.77c-3.23-.34-5.94-2-8.87-3.16-9,0-18.09.1-27.13.05-1.55,0-2.9.1-4,1.28a2.18,2.18,0,0,1-.89.63c-1.48.43-2.95.48-4-.84a1.94,1.94,0,0,1,0-2.56c1.07-1.33,2.94-1.75,3.95-.83,2.73,2.49,5.87,1.67,8.89,1.72,7.76.11,15.51.1,23.26.15C402.91,499.42,405.48,501.54,408.42,502.77Z" transform="translate(-10.05 -14.53)"/><path class="cls-2" d="M424,509.32a6.75,6.75,0,0,1-5.08-1.82,3.61,3.61,0,0,1-2.07-.75,47.81,47.81,0,0,1-8.57-3.65c4,0,6.31,3,9.59,2.68a2.11,2.11,0,0,0-1.17-2c-1.13-.69-1.62-1.53-.48-2.54a3.14,3.14,0,0,1,4.47-.06c1,.89.82,1.81-.38,2.6-1.43.94-1.15,2.31-.62,3.66C421.4,507.51,422.62,508.61,424,509.32Z" transform="translate(-10.05 -14.53)"/><path class="cls-10" d="M497.16,504.37c-1.34.84-2.57,2-4.72,1.82A7.78,7.78,0,0,1,497.16,504.37Z" transform="translate(-10.05 -14.53)"/><path class="cls-5" d="M488.34,55.38c1.83-.38,3,1,4.45,1.47C490.93,57.32,489.75,56.07,488.34,55.38Z" transform="translate(-10.05 -14.53)"/><path class="cls-15" d="M451.66,515.5c-1.76.19-3-.81-4.94-1.73C449.13,513.5,450.37,514.61,451.66,515.5Z" transform="translate(-10.05 -14.53)"/><path class="cls-15" d="M495,63.06c-1.78.4-2.91-.94-4.34-1.53C492.37,61.19,493.62,62.25,495,63.06Z" transform="translate(-10.05 -14.53)"/><path class="cls-10" d="M81.33,223.29c-.73-1.18-2.21-1.85-2.51-3.7,2.05.44,2.32,2,2.92,3.33Z" transform="translate(-10.05 -14.53)"/><path class="cls-15" d="M74.29,354.29c.3-1.58,1.76-2.29,2.6-3.46l.44.42a5.39,5.39,0,0,1-2.6,3.47Z" transform="translate(-10.05 -14.53)"/><path class="cls-2" d="M441.12,510.92c-2.17,0-4.33-.72-6.5-.07.2.29.34.75.6.84,1.56.52,2.19,1.66,1.23,2.89a2.72,2.72,0,0,1-3.9.54c-1.34-1-1.27-2.31.22-3.32,0-1.8-1.37-1-2.21-1.15-1.92-.26-4,.48-6.49-1.2C430.26,510.11,435.82,508.7,441.12,510.92Z" transform="translate(-10.05 -14.53)"/><path class="cls-2" d="M442,511.11l5.06,2C444.78,513.44,444.28,513.28,442,511.11Z" transform="translate(-10.05 -14.53)"/><path class="cls-2" d="M488.69,512.74l.33.37a23.6,23.6,0,0,1-8.38,3.4c-1.49.75-3.08.34-4.61.35-6.73,0-13.45,0-20.18,0-1.14,0-2.38.26-3.76-1h28.52Z" transform="translate(-10.05 -14.53)"/><path class="cls-2" d="M494.57,510.81a7.58,7.58,0,0,1-4.33,1.57,8,8,0,0,1,4.27-2A3.78,3.78,0,0,1,494.57,510.81Z" transform="translate(-10.05 -14.53)"/><path class="cls-10" d="M156.34,65.83a9.35,9.35,0,0,1-3.94-1.73,5.3,5.3,0,0,1,4.24,1.37C156.54,65.58,156.44,65.71,156.34,65.83Z" transform="translate(-10.05 -14.53)"/><path class="cls-15" d="M74.32,357.25c-1,.07-1-1.06-1.73-1.36.37-.74.72-1.5,1.7-1.6l.44.43C74.6,355.57,74.46,356.41,74.32,357.25Z" transform="translate(-10.05 -14.53)"/><path class="cls-15" d="M129.37,57.85l0,.66c-1,.64-2,.49-3.32-.08C127.15,57.43,128.34,58,129.37,57.85Z" transform="translate(-10.05 -14.53)"/><path class="cls-15" d="M76.89,350.83c.35-1.25,1.52-1.83,2.25-2.77l.41.4c-.55,1.08-.72,2.46-2.23,2.79Z" transform="translate(-10.05 -14.53)"/><path class="cls-10" d="M83.26,226.37l-.6-.06c.47-1.41-1.18-1.88-1.33-3l.41-.37C83.65,223.46,83.38,225,83.26,226.37Z" transform="translate(-10.05 -14.53)"/><path class="cls-2" d="M83.86,51.82c0,.15,0,.3,0,.46a3.45,3.45,0,0,1-2.94,1C81.69,52,82.92,52.18,83.86,51.82Z" transform="translate(-10.05 -14.53)"/><path class="cls-2" d="M80.27,53.2c.11.24.21.49.32.74L69.94,58.29a2,2,0,0,1,0-.49C73.15,55.63,76.81,54.65,80.27,53.2Z" transform="translate(-10.05 -14.53)"/><path class="cls-2" d="M164.9,499.21c0,.14,0,.28,0,.42l-9.65,4.22-.33-.77C158.22,501.78,161.22,499.72,164.9,499.21Z" transform="translate(-10.05 -14.53)"/><path class="cls-2" d="M78.38,513.84c-1.16.73-1.88-.23-3-.63C76.77,512.73,77.64,513,78.38,513.84Z" transform="translate(-10.05 -14.53)"/><path class="cls-2" d="M122.3,512.22c-5.4,1.88-9.59,4.92-15.07,4.72-7.1-.24-14.21-.09-21.32,0-2.68,0-4.89-1.13-7.47-2.52.67-.13,1-.28,1.15-.21,10.17,3.46,20.65,1,31,1.53,2.54.14,4.79-1.72,7.19-2.63C119,512.61,120.07,511.59,122.3,512.22Z" transform="translate(-10.05 -14.53)"/><path class="cls-2" d="M149.36,506.05c-1.39,1.22-3.2,1.27-4.86,2a4.76,4.76,0,0,0,1-3.4c-1.1-.53-2.21-1.11-2.05-2.56.14-1.21,1.12-1.54,2.18-1.72a3,3,0,0,1,3.3,1.46c.81,2-1.42,2-2.47,2.82C146.25,507.53,148.47,505.18,149.36,506.05Z" transform="translate(-10.05 -14.53)"/><path class="cls-2" d="M143.69,508.11a10.14,10.14,0,0,1-6.85,2.46c-1.92.06-3.84.18-5.76.27a8.3,8.3,0,0,0,.76.69c1.18.83,2,1.9.87,3.18s-2.8,1.27-4.16.13c-1.61-1.34-.54-2.25.65-3.07.2-1.57-1-1.22-1.79-1.18a24.24,24.24,0,0,0-2.92.45c-.7.57-1.41,1.12-2.39.59.35-1,1.27-.86,2-1a4.15,4.15,0,0,1,2.81-.93C132.52,509.32,138.27,510.77,143.69,508.11Z" transform="translate(-10.05 -14.53)"/><path class="cls-2" d="M154.17,503.9c-1.38.63-2.45,1.93-4.22,1.54C151.26,504.62,152.5,503.74,154.17,503.9Z" transform="translate(-10.05 -14.53)"/><path class="cls-12" d="M406.65,533.64l0,0a.17.17,0,0,1,0-.07Z" transform="translate(-10.05 -14.53)"/><path class="cls-2" d="M142.47,19.54a4.2,4.2,0,0,1-3.71.48,5.86,5.86,0,0,0-3.75.19c-8.58,4-17.31,7.67-26.13,11.11l-.06-1.2c5.31-2.82,11-4.82,16.48-7.22a56.13,56.13,0,0,1,9.11-3.58l.88-.39c.51-.63.3-1.74,1.33-2,1.44-2.53,4.37-3.13,6.37-1.3A2.44,2.44,0,0,1,142.47,19.54Z" transform="translate(-10.05 -14.53)"/><path class="cls-10" d="M492.3,506.58a2.7,2.7,0,0,1-2.17.91h0l-.12-.06v-.14C490.58,506.47,491.25,506,492.3,506.58Z" transform="translate(-10.05 -14.53)"/><path class="cls-5" d="M495.49,57.7c0,.29,0,.57,0,.86-.71-.25-1.52-.3-2.06-1,.49-.64,1.14-.16,1.66-.31l0,0Z" transform="translate(-10.05 -14.53)"/><path class="cls-2" d="M403.43,67.76c-1.38,1.24-2.68,1.71-5.58,1.71H369.62a9.84,9.84,0,0,1-2.39,1.71,3.3,3.3,0,0,1-3.75-.87,2,2,0,0,1,.13-2.76c1.14-1.24,2.66-1.1,4.06-.6a7.75,7.75,0,0,1,1.9,1.49C381,68.25,392.5,69.41,403.43,67.76Z" transform="translate(-10.05 -14.53)"/><path class="cls-2" d="M421.2,66.55c-.36.94-1.32,1.21-2.16,1.47a2.89,2.89,0,0,1-3.13-1.21c-.88-1.1.2-1.76,1-2.31a2,2,0,0,0,.87-2.15l-2.61.58a7.64,7.64,0,0,1-4.35,1.61,7.44,7.44,0,0,1,4-2,6.78,6.78,0,0,1,3-1.4l.94-.24c.67-.57,1.29-1.29,2.37-.75-.21.93-1,.75-1.63,1-.28,1.16-.69,2.43.47,3.28C420.83,65,421.62,65.46,421.2,66.55Z" transform="translate(-10.05 -14.53)"/><path class="cls-2" d="M404.73,67.05a12,12,0,0,1,6.14-2.51l.48,0A17.73,17.73,0,0,1,404.73,67.05Z" transform="translate(-10.05 -14.53)"/><path class="cls-5" d="M499.47,59.63,499,60c-.75-.11-1.6-.06-1.74-1.11l0,0A2.64,2.64,0,0,1,499.47,59.63Z" transform="translate(-10.05 -14.53)"/><path class="cls-9" d="M531.12,72.12c-.52-.3-1.31-.22-1.51-1C530.34,71.11,531,71.18,531.12,72.12Z" transform="translate(-10.05 -14.53)"/><path class="cls-1" d="M50.5,158.17c0,1-1.18.63-1.59,1.19A1.52,1.52,0,0,1,50.5,158.17Z" transform="translate(-10.05 -14.53)"/><path class="cls-2" d="M117.14,148.59c-.11.8-.92.66-1.39,1l-.54.54a1.25,1.25,0,0,1-1.77.7c.16-.82.72-1,1.41-1.06l.55-.54c.34-.51.67-1.06,1.41-.94C116.94,148.31,117.16,148.5,117.14,148.59Z" transform="translate(-10.05 -14.53)"/><path class="cls-2" d="M119.3,146.46a2.17,2.17,0,0,0,.36.32,1.33,1.33,0,0,1-1.44.93c-.26,0-.43-.24-.26-.55A1.46,1.46,0,0,1,119.3,146.46Z" transform="translate(-10.05 -14.53)"/><path class="cls-2" d="M121.56,145.35c0,.42-.32.53-.69.54-.2-.11-.57-.13-.35-.48a.88.88,0,0,1,.56-.39C121.23,145,121.56,145.22,121.56,145.35Z" transform="translate(-10.05 -14.53)"/><path class="cls-2" d="M124.78,143.72c-.25,1.08-1.06,1.13-1.92,1.15-.67,0-1-.24-1-1a1.32,1.32,0,0,1,1.65-1.35C124.26,142.63,124.74,143,124.78,143.72Z" transform="translate(-10.05 -14.53)"/><path class="cls-10" d="M98.91,156.48a1,1,0,0,1,1.1.93C99.38,157.4,98.82,157.32,98.91,156.48Z" transform="translate(-10.05 -14.53)"/><path class="cls-14" d="M106.6,32.32c0,.22,0,.45,0,.67-.28.33-.7.45-.82,0C105.57,32.35,106.17,32.36,106.6,32.32Z" transform="translate(-10.05 -14.53)"/><path class="cls-2" d="M439.42,57.64c1.29-.47,2.41-1.53,4.39-1.4a10.55,10.55,0,0,1-4.26,2,4.72,4.72,0,0,1-4.44.24l-2.1.07a6.78,6.78,0,0,1-3.51.29,21.68,21.68,0,0,0-7.71,1.06c3.32-3,7.33-1.9,11.13-2,.31-.63-.11-1-.48-1.41-.95-1-1.19-2.13,0-3.08a2.87,2.87,0,0,1,3.78.16c1.09.9.91,2.13-.36,2.93-.58.38-1.53.41-.79,1.45Z" transform="translate(-10.05 -14.53)"/><path class="cls-2" d="M444,55.67l4.78-1.94A5,5,0,0,1,444,55.67Z" transform="translate(-10.05 -14.53)"/><path class="cls-2" d="M486.77,54.41c-.08.1-.17.19-.26.29-12.19-4.38-24.56-2-36.22-1.66a8.27,8.27,0,0,1,4.76-1.35q12,0,24.1,0A13.79,13.79,0,0,1,486.77,54.41Z" transform="translate(-10.05 -14.53)"/><path class="cls-5" d="M487.6,54.88c-.16.44-.76.16-1.09-.18.09-.1.18-.19.26-.29C487.09,54.54,487.83,54.24,487.6,54.88Z" transform="translate(-10.05 -14.53)"/><path class="cls-1" d="M532.21,189.25a.37.37,0,0,1-.2.28l-.76-.78.33-.67C532.12,188.3,532.17,188.77,532.21,189.25Z" transform="translate(-10.05 -14.53)"/><path class="cls-10" d="M489,513.11l-.33-.37c.36-.3,1-.58,1.13-.15C490.08,513.25,489.33,513,489,513.11Z" transform="translate(-10.05 -14.53)"/><path class="cls-10" d="M119.88,146.19c-.07.2-.15.39-.22.59a2.17,2.17,0,0,1-.36-.32Z" transform="translate(-10.05 -14.53)"/><path class="cls-16" d="M495.49,57.7l-.47-.47C495.54,57,495.43,57.45,495.49,57.7Z" transform="translate(-10.05 -14.53)"/></svg>